<?xml version="1.0" standalone="no"?>
<!DOCTYPE svg PUBLIC "-//W3C//DTD SVG 20010904//EN"
 "http://www.w3.org/TR/2001/REC-SVG-20010904/DTD/svg10.dtd">
<svg version="1.0" xmlns="http://www.w3.org/2000/svg"
 width="1050.000000pt" height="1050.000000pt" viewBox="0 0 1050.000000 1050.000000"
 preserveAspectRatio="xMidYMid meet">
<metadata>
Created by potrace 1.11, written by Peter Selinger 2001-2013
</metadata>
<g transform="translate(0.000000,1050.000000) scale(0.100000,-0.100000)"
fill="#000000" stroke="none">
<path d="M4365 10267 c-93 -31 -191 -109 -239 -191 -66 -114 -74 -270 -19
-386 107 -226 357 -312 585 -200 44 22 48 22 72 6 35 -23 33 -52 -10 -131 -42
-76 -61 -142 -70 -243 -8 -85 -27 -112 -81 -112 -29 0 -38 8 -84 70 -149 205
-363 294 -592 245 -217 -46 -389 -226 -434 -454 -27 -138 3 -280 87 -406 44
-67 49 -101 21 -136 -15 -19 -28 -24 -65 -23 l-46 1 0 -73 0 -72 51 -38 c109
-80 209 -231 250 -379 28 -100 30 -256 5 -360 -50 -209 -196 -389 -391 -481
-108 -51 -184 -68 -310 -69 -124 0 -215 19 -310 65 -33 16 -60 28 -61 27 -7
-8 -54 -120 -52 -122 16 -14 118 -58 176 -75 114 -35 150 -96 111 -193 -23
-55 -37 -57 -399 -57 l-330 0 0 -510 c0 -561 1 -554 -60 -585 -41 -21 -92 -19
-130 8 -28 18 -38 38 -65 118 -48 147 -104 238 -215 349 -228 228 -538 311
-839 223 -301 -86 -515 -304 -603 -610 -32 -112 -32 -324 0 -436 56 -197 149
-337 308 -463 69 -54 84 -71 84 -94 0 -44 -19 -51 -142 -53 -110 -2 -117 -3
-189 -39 -93 -46 -158 -112 -202 -206 -30 -62 -32 -75 -32 -172 0 -97 2 -110
32 -172 44 -94 109 -160 202 -206 72 -36 79 -37 180 -37 98 0 111 2 173 32
168 79 255 225 246 412 -3 72 -9 97 -37 152 -18 36 -54 88 -82 115 -54 53 -63
88 -29 119 19 17 23 17 102 -3 117 -29 219 -36 322 -23 205 28 359 104 506
251 110 111 167 202 215 348 35 105 55 128 116 138 47 8 105 -19 124 -57 13
-23 15 -111 15 -538 l0 -510 341 -3 341 -3 29 -33 c24 -26 29 -41 29 -81 0
-68 -32 -105 -108 -127 -84 -24 -196 -78 -266 -128 -60 -43 -216 -199 -216
-216 0 -15 -60 -30 -85 -20 -45 17 -56 48 -44 120 27 167 -36 348 -165 475
-178 175 -417 214 -646 103 -86 -42 -205 -159 -248 -246 -152 -308 -4 -670
321 -783 67 -23 99 -29 172 -29 163 0 281 47 401 161 72 68 96 79 139 63 8 -4
22 -19 31 -35 13 -26 13 -35 -1 -87 -23 -82 -30 -246 -16 -337 13 -78 43 -174
80 -256 25 -55 15 -99 -25 -118 -38 -17 -57 -14 -101 18 -132 96 -299 132
-455 100 -72 -15 -182 -69 -242 -118 -51 -43 -85 -51 -110 -25 -20 19 -20 36
-1 98 30 98 13 242 -38 326 -82 134 -214 210 -367 210 -166 0 -319 -98 -387
-248 -38 -82 -43 -212 -13 -301 39 -117 114 -200 229 -255 61 -29 74 -31 171
-31 94 0 111 3 165 28 32 15 74 39 91 52 40 30 75 32 99 5 18 -20 18 -22 -3
-87 -38 -112 -46 -196 -29 -293 22 -127 65 -210 156 -300 119 -119 240 -170
398 -170 363 0 635 346 543 690 -36 135 -37 153 -5 179 15 11 38 21 50 21 12
0 58 -28 101 -63 86 -67 188 -125 270 -151 56 -18 77 -46 63 -82 -10 -29 -17
-33 -86 -45 -86 -16 -161 -56 -224 -118 -165 -166 -169 -416 -10 -584 170
-180 441 -181 610 -2 191 201 145 512 -95 655 -66 39 -74 46 -74 76 0 38 30
54 106 54 96 0 235 31 334 74 97 42 131 45 160 14 30 -32 25 -63 -24 -142 -65
-104 -88 -181 -89 -296 -2 -192 78 -350 236 -466 55 -41 136 -78 192 -88 14
-3 34 -8 45 -11 19 -6 20 0 23 152 l3 158 2 -157 2 -158 25 0 24 0 4 158 3
157 2 -157 2 -158 25 0 24 0 4 158 3 157 2 -159 c2 -140 4 -157 18 -152 9 3
20 6 25 6 4 0 10 69 12 152 l3 153 2 -152 2 -153 64 24 c89 32 155 76 225 151
93 100 151 243 151 375 0 73 -27 180 -65 257 -69 140 -227 261 -382 293 -82
18 -234 8 -303 -19 -74 -28 -104 -27 -129 5 -33 42 -26 69 41 157 67 90 129
211 153 303 77 295 -4 609 -215 824 -111 114 -228 185 -377 230 -93 28 -123
60 -123 131 0 40 5 55 29 81 l29 33 885 3 c567 1 894 -1 911 -8 42 -15 68 -67
63 -123 -6 -64 -32 -91 -120 -117 -234 -71 -428 -236 -533 -455 -68 -141 -79
-194 -78 -380 0 -152 2 -165 32 -255 78 -234 239 -414 464 -520 47 -22 122
-48 167 -59 87 -20 110 -37 111 -82 0 -41 -29 -68 -104 -94 -226 -79 -376
-290 -376 -530 0 -99 20 -178 65 -264 69 -129 34 -172 -91 -113 -53 24 -70 27
-169 27 -103 0 -114 -2 -178 -32 -266 -126 -328 -471 -122 -678 77 -77 162
-116 267 -122 140 -9 241 31 337 132 122 129 150 301 76 462 -29 64 -31 95 -9
117 22 23 32 21 121 -24 236 -120 493 -76 672 115 202 216 202 544 0 760 -70
75 -147 124 -239 155 -74 24 -90 40 -90 87 0 42 26 68 76 77 315 56 584 304
676 623 30 103 33 332 5 432 -50 184 -144 334 -284 452 -92 79 -168 118 -357
184 -41 15 -51 24 -68 61 -24 56 -12 110 33 148 l31 26 879 0 c966 0 922 3
954 -60 21 -41 19 -92 -7 -130 -20 -29 -39 -39 -130 -70 -131 -45 -240 -112
-334 -205 -189 -186 -280 -436 -253 -700 19 -195 92 -354 231 -503 66 -72 76
-97 54 -141 -21 -40 -53 -47 -126 -27 -69 20 -202 22 -275 6 -228 -51 -410
-261 -432 -497 l-6 -64 39 6 c21 4 43 11 47 14 4 4 12 36 18 72 43 268 316
443 582 374 84 -22 134 -51 203 -117 74 -70 121 -160 138 -258 6 -38 13 -71
16 -73 3 -2 22 -7 43 -11 l37 -7 0 54 c0 98 -52 229 -129 322 -45 54 -49 71
-26 114 22 43 54 46 153 12 119 -41 217 -55 337 -48 112 7 179 22 295 68 76
30 80 31 105 15 49 -32 53 -100 9 -137 -24 -20 -15 -30 14 -15 15 7 56 23 92
34 36 11 85 32 110 46 131 73 319 73 450 0 25 -14 74 -35 110 -46 36 -11 77
-27 93 -34 36 -19 34 -11 -8 39 -19 22 -35 50 -35 62 0 32 34 58 67 52 157
-30 162 -31 223 -19 184 34 321 172 353 355 22 129 -28 272 -128 366 -237 224
-619 111 -701 -209 -29 -114 -1 -250 72 -345 37 -49 43 -85 18 -109 -20 -21
-25 -20 -117 9 -103 33 -230 34 -334 4 -84 -25 -117 -20 -138 21 -23 44 -20
53 39 122 119 141 183 273 212 440 19 106 14 248 -11 338 -18 64 -12 104 18
125 43 30 73 20 151 -54 120 -114 238 -161 401 -161 348 1 613 329 541 670
-24 115 -68 193 -155 281 -226 226 -560 227 -787 4 -128 -126 -193 -313 -165
-475 11 -65 -1 -98 -40 -117 -38 -18 -78 -1 -114 49 -51 68 -180 181 -261 228
-42 24 -120 58 -172 75 -71 24 -102 39 -117 59 -24 33 -27 100 -5 140 29 54
40 56 399 56 l330 0 3 524 c3 496 4 525 22 545 25 27 80 44 120 37 52 -10 80
-44 105 -126 72 -236 239 -429 464 -535 122 -58 213 -78 362 -78 102 0 147 5
209 22 96 26 91 26 116 1 31 -31 24 -56 -30 -113 -163 -168 -166 -416 -9 -582
87 -92 185 -135 309 -135 219 0 400 170 417 391 14 173 -83 336 -244 412 -63
30 -76 32 -183 34 -105 1 -116 3 -132 23 -25 31 -23 39 24 79 218 189 310 321
364 528 24 93 25 302 1 393 -70 263 -240 472 -478 585 -123 58 -214 77 -374
80 -77 1 -146 3 -153 4 -7 0 -19 16 -28 34 -21 44 -6 79 47 112 91 58 173 162
216 272 35 93 43 232 18 337 -20 84 -17 101 20 118 22 10 30 8 53 -10 115 -92
209 -132 311 -132 183 1 337 110 401 287 19 53 22 77 18 155 -3 79 -9 103 -36
159 -39 81 -128 169 -209 207 -53 24 -69 27 -173 27 -103 0 -121 -3 -172 -27
-106 -49 -200 -158 -232 -267 -18 -61 -21 -169 -6 -220 6 -23 6 -40 -2 -55
-28 -53 -56 -48 -132 23 -112 104 -243 156 -392 155 -256 -3 -492 -195 -543
-442 -25 -123 -6 -267 51 -376 40 -75 163 -201 235 -239 69 -36 191 -67 270
-67 75 0 103 -20 103 -73 0 -39 -18 -58 -104 -108 -165 -96 -315 -290 -375
-482 -27 -88 -36 -104 -71 -122 -37 -19 -83 -19 -120 0 -62 32 -60 9 -60 577
l0 518 -330 0 c-355 0 -373 2 -397 52 -21 42 -25 68 -13 102 16 48 47 73 125
97 239 73 443 255 545 485 46 106 63 192 65 339 1 77 5 150 9 162 9 28 67 49
95 33 12 -6 38 -34 60 -63 113 -154 274 -237 458 -237 416 0 686 435 502 806
-166 337 -604 419 -880 165 -113 -104 -175 -239 -182 -398 -4 -99 -20 -123
-78 -123 -42 0 -39 -3 -119 120 -59 93 -160 195 -251 255 -37 25 -70 52 -73
61 -11 29 -6 62 13 85 17 22 27 24 122 25 74 1 123 8 169 23 337 107 496 481
339 794 -45 88 -163 204 -252 246 -181 86 -384 75 -546 -29 -167 -108 -261
-280 -261 -475 0 -165 50 -279 179 -405 48 -47 90 -93 94 -103 9 -23 -10 -70
-34 -85 -16 -10 -41 -10 -124 -1 -124 15 -240 3 -363 -36 -98 -31 -136 -32
-156 -3 -27 39 -19 73 34 143 93 122 124 211 124 350 0 153 -53 283 -159 391
-226 229 -576 229 -800 1 -220 -226 -218 -564 5 -787 70 -70 150 -118 245
-146 77 -23 219 -23 296 0 63 19 100 11 118 -23 23 -43 13 -69 -59 -146 -86
-94 -123 -146 -166 -240 -100 -216 -102 -496 -5 -709 101 -223 291 -394 526
-471 104 -35 122 -47 136 -95 16 -51 -1 -110 -38 -139 -25 -21 -33 -21 -915
-21 l-890 0 -35 35 c-34 34 -35 38 -31 91 6 71 30 94 123 124 236 73 426 236
530 454 68 145 80 198 80 371 0 179 -13 234 -86 380 -82 165 -177 267 -337
364 -277 166 -635 156 -909 -26 -192 -127 -335 -345 -374 -569 -17 -101 -7
-302 21 -389 49 -153 117 -264 230 -375 94 -92 219 -168 337 -205 112 -35 135
-56 141 -129 4 -53 3 -57 -31 -91 l-35 -35 -891 0 -891 0 -31 28 c-44 39 -52
111 -17 161 19 28 39 38 118 65 370 123 602 439 602 821 0 198 -65 387 -187
539 -63 79 -70 112 -30 151 29 30 49 31 112 6 78 -30 187 -43 270 -31 269 38
465 245 489 517 8 90 16 110 50 123 44 17 72 1 116 -62 80 -118 172 -189 301
-233 212 -71 469 4 607 177 147 184 168 407 59 624 -44 88 -45 117 -5 136 18
8 32 5 62 -10 201 -102 431 -46 555 134 l29 43 -29 20 c-37 27 -36 27 -51 -9
-17 -42 -92 -107 -158 -138 -47 -22 -71 -27 -142 -27 -76 0 -92 3 -152 33 -77
38 -130 92 -166 171 -22 46 -26 71 -27 141 0 73 4 94 28 145 15 33 49 81 74
107 46 47 46 48 28 68 -10 11 -24 20 -30 20 -23 0 -107 -101 -137 -167 -54
-114 -50 -238 9 -365 22 -47 24 -62 16 -81 -18 -39 -45 -38 -130 4 -192 95
-362 92 -559 -11 -59 -32 -85 -30 -104 6 -12 21 -9 32 21 96 32 69 34 79 34
183 0 103 -2 114 -32 176 -40 81 -130 169 -210 207 -49 22 -74 27 -158 29 -63
2 -115 -2 -140 -10z m257 -79 l37 -17 -45 -44 c-49 -49 -57 -86 -23 -108 13
-9 18 -20 14 -31 -12 -31 -43 -21 -62 19 -26 52 -44 61 -87 40 -25 -11 -36
-23 -36 -38 0 -15 4 -19 16 -15 10 4 14 1 12 -6 -3 -7 -18 -14 -35 -16 -39 -4
-55 26 -24 47 34 22 26 59 -23 107 -25 25 -39 47 -33 51 56 35 220 41 289 11z
m-342 -78 c12 -8 9 -10 -13 -10 -16 0 -26 4 -22 10 8 12 16 12 35 0z m455 0
c4 -6 -6 -10 -22 -10 -22 0 -25 2 -13 10 19 12 27 12 35 0z m-500 -80 c4 -6
-7 -10 -24 -10 -17 0 -31 5 -31 10 0 6 11 10 24 10 14 0 28 -4 31 -10z m565 0
c0 -5 -14 -10 -31 -10 -17 0 -28 4 -24 10 3 6 17 10 31 10 13 0 24 -4 24 -10z
m-561 -87 c20 -5 14 -9 -35 -24 -32 -10 -60 -16 -62 -14 -10 10 9 34 30 38 37
7 42 7 67 0z m593 -9 c7 -5 12 -34 6 -34 -2 0 -30 9 -63 19 -43 13 -54 20 -40
24 20 5 83 -1 97 -9z m-532 -88 c0 -2 -31 -29 -69 -59 l-68 -56 -11 35 c-11
38 -11 39 53 66 36 15 95 24 95 14z m487 -20 l52 -24 -11 -35 -11 -36 -68 56
c-38 30 -69 57 -69 59 0 12 62 0 107 -20z m-427 -93 c0 -5 -9 -19 -19 -32 -14
-18 -22 -21 -37 -14 -21 11 -44 7 -44 -8 0 -5 8 -9 18 -10 10 0 12 -3 5 -6 -7
-2 -13 -14 -13 -25 0 -14 5 -18 15 -14 8 3 15 1 15 -4 0 -6 7 -10 15 -10 8 0
15 9 15 19 0 15 5 18 21 14 18 -5 20 -3 15 15 -6 17 -1 24 24 37 18 9 33 15
35 13 2 -2 -20 -38 -48 -80 -57 -86 -56 -86 -128 -21 l-40 36 28 29 c42 44
123 84 123 61z m318 -12 c20 -11 50 -32 65 -49 l28 -29 -40 -36 c-71 -64 -74
-64 -115 1 -20 31 -44 67 -53 80 l-16 23 34 -14 c26 -11 33 -19 31 -37 -2 -18
2 -21 18 -17 15 4 20 0 20 -14 0 -10 7 -19 15 -19 8 0 15 4 15 10 0 5 7 7 15
4 10 -4 15 0 15 14 0 11 -6 23 -12 25 -8 3 -6 6 5 6 9 1 17 5 17 10 0 16 -32
22 -47 9 -12 -10 -18 -7 -34 12 -34 45 -21 52 39 21z m-235 -134 c-13 -53 -20
-67 -35 -67 -15 0 -18 5 -13 23 9 27 57 118 61 114 2 -2 -4 -33 -13 -70z m142
-44 c5 -18 2 -23 -12 -23 -19 0 -22 7 -49 125 -6 25 51 -72 61 -102z m758 12
c141 -30 268 -130 330 -262 31 -65 32 -73 32 -193 0 -123 -1 -126 -36 -201
-127 -266 -468 -353 -701 -178 -67 49 -130 132 -159 206 -31 81 -37 214 -14
299 44 162 183 293 349 329 80 18 117 18 199 0z m2452 -360 c-118 -151 -215
-277 -215 -280 0 -3 112 -5 249 -5 l248 0 -77 -182 c-63 -146 -83 -184 -99
-186 -30 -5 -127 25 -184 56 -60 32 -156 134 -186 196 -128 262 -3 562 274
658 30 10 81 17 127 18 l77 0 -214 -275z m377 223 c121 -64 219 -205 241 -347
27 -176 -60 -363 -214 -462 -58 -37 -155 -69 -209 -69 l-39 0 179 260 c99 143
180 262 180 265 0 3 -99 6 -219 7 l-219 3 86 196 86 196 35 -9 c20 -6 62 -24
93 -40z m-179 -18 c-10 -26 -19 -36 -24 -29 -6 10 26 69 37 69 1 0 -5 -18 -13
-40z m-1261 -82 c83 -53 132 -121 192 -269 19 -48 56 -129 82 -180 41 -81 48
-103 48 -155 1 -51 -3 -66 -27 -97 -45 -60 -243 -181 -387 -237 l-54 -21 -66
25 c-86 34 -274 139 -329 184 -104 84 -108 145 -21 320 32 67 73 156 91 197
61 146 165 252 277 280 57 15 121 -1 194 -47z m1209 25 c-11 -16 -85 -111
-164 -213 l-144 -185 243 -5 243 -5 -23 -50 c-14 -27 -25 -45 -25 -40 0 6 6
21 14 35 29 51 32 50 -225 50 -132 0 -240 2 -240 6 0 7 331 434 337 434 2 0
-5 -12 -16 -27z m15 -30 c-8 -15 -15 -25 -16 -21 0 12 23 58 27 54 3 -2 -2
-17 -11 -33z m-1634 -70 c-11 -16 -30 -37 -42 -48 -70 -63 -122 -166 -139
-276 -14 -85 -35 -105 -26 -24 17 139 67 240 163 325 31 28 58 50 60 50 2 0
-5 -12 -16 -27z m623 -77 c58 -71 96 -164 102 -253 7 -96 -5 -91 -18 8 -11 92
-51 177 -115 249 -88 98 -94 108 -46 71 23 -18 58 -52 77 -75z m966 47 c-11
-21 -20 -35 -21 -31 0 12 33 78 38 74 2 -2 -6 -21 -17 -43z m-3711 4 l65 -22
-113 -3 c-62 -1 -161 -1 -220 0 l-107 3 65 22 c111 38 198 38 310 0z m3667
-110 c-12 -31 -25 -57 -29 -57 -4 0 3 25 17 56 14 31 25 59 25 62 0 3 2 3 5 1
2 -3 -6 -30 -18 -62z m-4098 -492 c-23 -93 -44 -172 -46 -175 -9 -10 -66 68
-101 140 -33 68 -37 84 -40 175 -3 82 0 111 17 163 24 70 59 132 100 175 l26
28 42 -168 43 -168 -41 -170z m671 413 c53 -82 73 -164 68 -280 -3 -82 -8
-103 -40 -168 -19 -41 -51 -92 -70 -114 l-34 -39 -50 175 c-35 121 -48 182
-43 199 4 13 27 90 50 172 42 145 43 147 62 130 11 -10 37 -44 57 -75z m-259
-106 l-38 -147 32 -120 c18 -66 35 -131 38 -145 l6 -25 -173 3 -173 3 33 142
33 142 -24 105 c-13 58 -28 124 -33 148 l-10 42 173 0 173 0 -37 -148z m4092
116 c-15 -25 -286 -413 -295 -423 -5 -5 11 39 36 99 25 60 46 111 46 114 0 3
2 3 5 0 3 -3 -6 -32 -20 -63 -14 -32 -23 -60 -21 -62 2 -2 59 75 126 171 68
97 125 176 127 176 2 0 1 -6 -4 -12z m722 -573 c143 -37 247 -120 309 -247 67
-138 68 -274 2 -414 -93 -197 -320 -304 -531 -249 -173 45 -310 186 -346 356
-6 30 -9 90 -6 136 17 283 299 488 572 418z m-4755 -117 c-103 -43 -230 -50
-334 -18 -36 12 -66 23 -66 25 0 3 96 5 213 4 157 0 206 -3 187 -11z m1195
-93 c74 -20 170 -63 232 -107 l48 -32 -32 -9 c-37 -11 -39 -18 -48 -142 l-7
-90 -149 -114 c-82 -63 -149 -119 -149 -125 0 -6 -5 -40 -10 -76 l-10 -65 32
-27 c40 -35 33 -35 -37 -1 l-55 27 -55 -27 c-70 -34 -77 -34 -38 1 l31 27 -11
77 -12 76 -145 112 -145 112 -7 56 c-4 31 -10 83 -13 114 -6 56 -7 57 -41 64
l-36 7 44 29 c90 61 196 106 299 128 62 13 242 5 314 -15z m2083 16 c23 -5 45
-11 49 -14 3 -4 -1 -39 -8 -79 l-14 -73 -135 0 -135 0 -16 78 c-16 77 -15 77
5 82 12 2 30 6 41 8 36 8 169 6 213 -2z m-294 -98 l17 -77 -23 -19 c-26 -20
-142 -81 -175 -91 -18 -6 -28 2 -62 53 -23 33 -41 64 -41 68 0 21 215 141 256
143 6 0 19 -35 28 -77z m484 41 c72 -32 173 -104 165 -118 -60 -100 -75 -117
-96 -110 -39 11 -141 64 -171 87 l-28 23 17 77 c19 88 13 85 113 41z m-753
-200 l46 -66 -33 -55 c-18 -30 -43 -64 -56 -76 l-24 -22 -49 53 c-27 29 -53
51 -58 48 -5 -4 -13 -21 -16 -39 -9 -41 -14 -49 -26 -41 -14 8 65 152 117 212
25 28 47 52 49 52 2 0 24 -30 50 -66z m1074 -93 c43 -72 58 -111 43 -111 -5 0
-13 15 -16 33 -12 64 -20 65 -74 6 l-50 -54 -24 22 c-13 12 -38 46 -56 76
l-33 55 43 66 43 66 43 -46 c23 -26 60 -77 81 -113z m-516 30 c-12 -64 -25
-126 -28 -139 -5 -22 -10 -23 -78 -20 l-72 3 -21 110 c-11 61 -23 122 -27 136
l-7 26 129 0 128 0 -24 -116z m-233 -32 l31 -134 -28 -22 c-27 -22 -91 -49
-98 -41 -1 1 -34 52 -73 113 l-71 109 73 36 c40 20 86 46 102 57 16 12 30 20
31 19 2 -1 16 -63 33 -137z m439 53 l59 -27 -65 -100 c-35 -55 -68 -106 -72
-114 -10 -17 -63 -1 -104 32 l-28 22 25 115 c14 63 28 125 31 138 l6 23 44
-31 c25 -17 71 -43 104 -58z m-3026 -57 l12 -70 190 -151 c218 -174 228 -189
162 -229 -36 -21 -44 -23 -62 -11 -11 7 -51 33 -89 57 l-70 43 37 8 c30 6 52
2 112 -22 85 -34 85 -34 85 -20 0 12 -329 261 -334 252 -7 -13 -76 -261 -76
-275 0 -11 267 -241 323 -278 5 -4 6 -12 3 -18 -5 -7 -28 5 -66 34 -32 25 -60
45 -63 45 -2 0 -2 -11 1 -25 2 -15 22 -38 48 -57 28 -20 41 -35 35 -41 -6 -6
-18 -3 -32 7 -33 22 -39 20 -39 -13 0 -26 11 -37 77 -83 61 -42 79 -60 86 -87
9 -37 35 -81 47 -81 4 0 10 21 13 46 6 54 10 58 88 74 l59 13 0 68 0 68 -37 3
c-35 3 -38 6 -65 72 -15 38 -29 71 -31 72 -1 1 -28 -4 -59 -13 l-56 -16 -114
93 c-62 51 -117 96 -122 101 -4 4 -7 12 -5 18 2 6 58 -32 124 -84 125 -99 126
-99 191 -75 22 9 25 15 20 38 -4 15 17 -17 45 -70 l52 -98 66 0 66 0 48 96
c27 53 50 94 53 91 3 -3 1 -14 -5 -25 -9 -17 -5 -21 32 -36 24 -9 46 -16 51
-16 4 0 62 43 129 96 67 52 123 90 125 84 2 -6 2 -13 1 -14 -2 -2 -57 -46
-122 -99 -65 -54 -122 -97 -126 -97 -4 0 -30 7 -56 15 -27 8 -51 12 -54 9 -3
-3 -18 -36 -32 -72 -27 -67 -27 -67 -69 -70 -41 -3 -42 -4 -36 -34 3 -17 6
-47 6 -68 l0 -38 70 -17 70 -17 6 -49 c4 -27 11 -49 16 -49 10 0 47 77 48 100
0 8 30 35 66 59 84 57 94 67 94 97 0 28 -7 30 -39 8 -15 -11 -26 -13 -33 -6
-6 6 6 21 36 42 33 24 46 40 46 57 l0 24 -46 -33 c-25 -18 -48 -36 -50 -40 -7
-10 -34 -10 -34 0 0 4 74 67 165 141 91 74 165 139 165 145 0 8 -63 237 -75
274 -3 9 -57 -26 -152 -99 -219 -166 -229 -179 -100 -129 53 20 86 28 107 24
16 -4 30 -9 30 -13 -1 -3 -39 -30 -85 -59 l-84 -53 -40 27 c-23 15 -41 28 -41
30 0 28 49 75 204 198 102 81 187 154 190 164 5 17 26 131 26 141 0 14 55 -77
86 -142 43 -92 64 -188 64 -302 0 -124 -21 -213 -76 -325 -40 -80 -62 -109
-138 -185 -74 -74 -107 -99 -176 -132 -47 -23 -114 -49 -149 -58 -246 -63
-506 6 -684 180 -206 201 -275 506 -174 772 30 82 99 203 104 186 2 -5 9 -39
16 -78z m2397 -101 c36 -53 68 -102 72 -109 5 -7 -1 -24 -12 -38 l-21 -26 -97
66 c-53 36 -97 69 -97 72 0 9 79 130 85 130 3 1 34 -42 70 -95z m758 29 c24
-36 42 -66 40 -67 -2 -1 -47 -32 -100 -69 l-97 -66 -21 26 c-23 30 -31 11 68
161 30 45 58 82 61 81 3 0 25 -30 49 -66z m-1102 -181 c0 -59 6 -124 12 -146
11 -37 10 -38 -11 -32 -12 3 -32 6 -44 6 -21 0 -23 5 -23 59 0 57 23 201 35
221 3 5 11 7 18 4 8 -3 12 -37 13 -112z m1363 66 c7 -29 15 -95 18 -145 5 -86
4 -93 -13 -93 -11 0 -29 -3 -41 -6 -21 -6 -22 -4 -12 27 6 19 12 86 14 149 5
135 3 120 13 120 5 0 14 -24 21 -52z m-639 16 c0 -19 -50 -257 -55 -262 -11
-11 -17 11 -44 140 l-27 134 63 0 c39 -1 63 -5 63 -12z m-125 -119 c33 -151
33 -149 15 -152 -10 -2 -37 32 -77 94 -34 54 -63 104 -65 111 -2 9 89 72 99
67 1 0 14 -54 28 -120z m254 43 c-9 -17 -116 -185 -125 -197 -2 -2 -10 -1 -18
2 -13 5 -13 14 -1 64 7 32 20 92 29 134 l17 77 54 -30 c49 -26 54 -32 44 -50z
m-629 -44 c119 -62 217 -158 271 -266 37 -73 33 -98 -18 -133 -47 -32 -126
-34 -181 -6 -69 36 -138 127 -173 230 -21 59 -36 188 -26 215 7 19 27 13 127
-40z m1010 -7 c-1 -159 -95 -344 -203 -396 -86 -42 -197 -17 -221 50 -18 53
83 206 188 286 66 50 213 126 227 117 5 -3 9 -29 9 -57z m-717 -61 c57 -85 72
-126 48 -126 -3 0 -18 19 -33 43 -15 23 -49 67 -76 97 -47 53 -49 56 -33 77
19 26 13 32 94 -91z m357 17 c-27 -29 -61 -73 -77 -97 -30 -49 -38 -54 -46
-32 -4 9 25 61 65 120 70 104 71 105 88 83 17 -21 17 -23 -30 -74z m2350 16
c68 -32 133 -97 168 -169 23 -47 27 -67 27 -145 0 -82 -3 -97 -33 -157 -38
-77 -92 -130 -171 -166 -47 -22 -70 -27 -141 -27 -71 0 -94 5 -141 27 -78 36
-133 89 -170 164 -95 193 1 424 204 490 68 22 191 14 257 -17z m-3169 -211
c15 -36 39 -83 53 -105 l26 -38 -52 -16 -53 -16 -19 36 c-24 45 -52 127 -60
177 l-7 40 42 -5 c42 -6 43 -7 70 -73z m671 55 c32 -29 12 -82 -26 -67 -21 8
-21 -10 0 -41 24 -36 13 -50 -35 -48 -53 1 -57 5 -41 42 14 34 11 46 -9 46
-23 0 -38 32 -25 53 27 43 97 51 136 15z m648 6 c0 -25 -32 -134 -54 -183
l-24 -53 -49 15 -48 15 54 108 c53 106 55 109 87 109 19 0 34 -5 34 -11z
m-793 -266 c-17 -48 -31 -89 -32 -91 -2 -2 -19 8 -39 22 l-36 24 29 22 c17 11
44 43 62 70 18 27 35 47 39 45 4 -2 -6 -44 -23 -92z m240 -20 l26 -17 -34 -28
-33 -28 -32 88 c-17 48 -29 91 -27 95 3 5 20 -14 39 -42 19 -28 46 -59 61 -68z
m-99 10 l29 -88 -87 0 -87 0 8 25 c4 14 15 50 24 80 22 71 21 70 55 70 27 0
30 -5 58 -87z m-432 -46 l43 -12 -65 -59 -65 -59 -36 34 c-19 19 -55 60 -79
91 l-44 56 58 20 57 19 44 -39 c24 -21 64 -44 87 -51z m983 56 c11 -8 -134
-173 -152 -173 -5 0 -35 23 -68 52 l-60 52 44 13 c24 7 64 30 88 51 l43 39 51
-16 c27 -8 52 -16 54 -18z m1010 8 c86 -27 140 -61 204 -130 61 -66 99 -138
116 -219 80 -382 -306 -684 -663 -519 l-69 31 42 11 43 10 -66 48 c-36 26 -66
53 -66 59 0 7 7 48 15 91 8 43 15 83 15 88 0 5 -17 10 -37 10 l-38 2 35 6 c31
5 35 10 36 36 0 17 -8 65 -18 108 l-18 79 22 31 c12 18 32 45 45 60 32 39 29
47 -14 48 -21 0 -46 4 -56 8 -17 6 -14 11 20 42 90 82 184 118 310 118 53 1
102 -6 142 -18z m-1270 -138 c39 -35 71 -68 71 -72 0 -16 -216 -121 -225 -109
-5 7 -65 180 -65 188 0 4 20 21 44 37 63 42 88 35 175 -44z m-520 36 c24 -17
41 -36 38 -42 -2 -7 -17 -49 -33 -95 -27 -78 -30 -82 -54 -77 -34 8 -210 94
-209 103 0 4 34 37 75 75 89 80 116 85 183 36z m234 -35 c37 -7 37 -7 66 -98
19 -61 25 -93 18 -98 -33 -21 -261 -20 -295 1 -9 5 -4 30 19 98 24 74 35 93
52 96 36 7 99 7 140 1z m-4579 -811 c3 -16 37 -233 76 -483 77 -502 84 -542
93 -520 3 8 40 233 82 500 42 267 79 495 82 508 l5 22 229 0 229 0 0 -921 c0
-507 2 -924 4 -926 6 -6 -4 -71 149 952 l132 890 243 3 c133 1 242 -1 242 -5
-2 -30 266 -1783 272 -1783 5 0 8 403 8 895 l0 895 213 0 c239 0 314 -11 415
-61 92 -45 230 -181 255 -252 2 -7 7 -10 10 -7 3 3 -3 70 -13 150 -11 80 -19
151 -20 158 0 9 42 12 180 12 178 0 180 0 184 -22 3 -13 39 -279 81 -593 42
-313 79 -581 82 -595 6 -23 7 -21 15 15 4 22 42 290 83 595 42 305 78 565 80
578 l5 22 510 0 510 0 0 -180 0 -180 -162 -2 -163 -3 -3 -232 -2 -233 165 0
165 0 0 -180 0 -180 -162 -2 -163 -3 -3 -237 -2 -238 165 0 165 0 0 -180 0
-180 -340 0 -340 0 0 915 c0 503 -3 915 -8 915 -4 0 -40 -206 -79 -457 -40
-252 -104 -658 -143 -903 -39 -245 -72 -450 -75 -457 -3 -9 -58 -11 -212 -10
l-208 2 -105 627 c-58 344 -108 630 -112 634 -5 4 -8 -21 -8 -55 0 -118 -70
-277 -164 -373 -25 -25 -46 -51 -46 -58 0 -6 50 -180 110 -385 61 -205 110
-378 110 -384 0 -8 -55 -11 -173 -11 l-174 0 -83 317 c-45 175 -86 327 -90
339 -7 18 -14 20 -52 15 l-43 -6 -3 -333 -2 -332 -343 2 -342 3 -18 135 c-10
74 -20 145 -23 158 -4 22 -7 22 -149 22 -109 0 -145 -3 -146 -12 -1 -7 -11
-78 -22 -158 l-22 -145 -347 -3 -348 -2 0 485 c0 267 -3 485 -8 485 -4 0 -43
-217 -87 -482 l-81 -483 -94 0 -95 0 -78 465 c-43 256 -82 474 -87 485 -5 12
-9 -184 -9 -468 l-1 -488 -180 1 -180 2 0 1014 0 1014 229 0 229 0 6 -27z
m4866 -808 l0 -835 155 0 155 0 0 -177 0 -178 -332 2 -333 2 -3 1011 -2 1010
180 0 180 0 0 -835z m-6624 538 c-2 -10 -26 -108 -52 -218 -26 -110 -48 -201
-49 -203 -1 -1 -73 18 -160 43 -88 24 -161 43 -163 40 -2 -2 28 -61 66 -132
61 -111 69 -129 54 -135 -9 -4 -98 -26 -197 -48 -99 -22 -186 -43 -194 -46
-11 -4 -13 8 -7 65 8 92 46 210 93 291 46 80 178 213 255 258 91 54 232 97
331 101 22 1 27 -3 23 -16z m201 -9 c82 -21 187 -73 261 -129 149 -112 256
-306 275 -498 4 -42 2 -48 -12 -45 -9 3 -105 27 -213 54 -109 26 -198 51 -198
54 0 3 29 56 65 119 36 63 63 116 61 118 -2 3 -73 -16 -157 -41 -84 -25 -155
-43 -158 -41 -2 3 -23 91 -47 196 -23 105 -45 203 -49 217 l-6 25 60 -7 c33
-4 86 -14 118 -22z m8194 1 c368 -99 596 -464 525 -837 -33 -170 -125 -323
-259 -430 -46 -36 -53 -38 -119 -38 l-71 0 -57 -54 c-56 -53 -57 -54 -134 -61
-243 -23 -475 73 -629 260 -61 74 -105 158 -138 265 -34 107 -34 283 0 390 89
287 305 477 596 524 53 8 228 -3 286 -19z m-7656 -757 c-37 -356 -301 -626
-648 -663 -55 -6 -66 -5 -62 6 4 12 50 184 104 386 l11 42 48 -14 c26 -8 101
-32 167 -54 66 -22 121 -38 123 -36 1 1 -34 61 -78 134 -44 72 -80 135 -80
139 0 6 382 118 413 121 4 1 5 -27 2 -61z m-1229 -18 c114 -33 208 -61 210
-62 1 -2 -29 -59 -67 -127 -38 -69 -68 -126 -66 -127 2 -2 72 17 156 42 85 24
156 42 160 39 8 -9 101 -408 96 -413 -10 -10 -173 21 -238 45 -199 74 -367
251 -432 455 -23 73 -44 208 -32 208 3 0 99 -27 213 -60z m56 -848 c60 -26
138 -99 169 -157 l24 -45 -80 -80 -80 -80 -87 87 -88 88 -88 -88 -87 -87 -79
79 -78 78 25 50 c42 82 126 148 222 174 53 14 176 4 227 -19z m9391 -10 c76
-38 129 -93 165 -171 22 -46 26 -71 26 -136 0 -147 -66 -255 -192 -317 -60
-30 -75 -33 -157 -33 -78 0 -97 4 -147 28 -238 117 -268 445 -56 601 103 75
242 86 361 28z m-8302 -246 c270 -57 431 -333 349 -597 -103 -334 -524 -439
-775 -194 -64 63 -121 174 -135 268 -42 273 177 528 460 536 19 0 65 -6 101
-13z m7440 -261 c60 -128 58 -267 -6 -403 -36 -76 -109 -158 -175 -196 -33
-19 -33 -19 -28 0 3 10 13 51 23 89 26 102 33 119 34 71 2 -78 21 -21 35 100
12 106 14 115 21 77 16 -88 34 -30 36 117 l1 85 14 -65 c7 -36 13 -82 14 -102
0 -21 4 -38 9 -38 17 0 23 88 12 155 -12 68 -56 203 -72 220 -5 5 -9 13 -9 18
0 20 64 -70 91 -128z m-8580 39 l86 -85 79 81 c43 45 80 77 82 71 8 -23 -55
-126 -106 -172 -160 -146 -432 -101 -534 88 -53 99 -45 102 44 15 l83 -82 85
85 c47 47 87 85 90 85 2 0 43 -39 91 -86z m7805 59 c-24 -49 -64 -188 -71
-249 -4 -38 -2 -69 6 -89 12 -29 13 -26 26 60 17 116 21 124 22 45 1 -89 12
-170 22 -170 5 0 9 8 9 18 1 9 8 31 16 47 8 17 12 22 9 12 -7 -25 13 -215 25
-235 8 -14 9 -13 10 8 0 14 5 32 10 40 7 11 10 7 10 -17 0 -18 11 -66 24 -108
13 -41 22 -75 20 -75 -12 0 -84 52 -118 86 -97 94 -141 213 -134 357 6 105 29
175 84 250 38 52 52 61 30 20z m555 -128 c24 -52 24 -75 0 -75 -11 0 -41 -19
-68 -41 -26 -23 -60 -47 -75 -54 l-28 -11 26 -23 c34 -30 98 -31 154 -3 l42
21 -7 -62 c-8 -72 -33 -123 -113 -227 -49 -64 -64 -76 -98 -83 -65 -14 -113 5
-157 61 l-37 49 0 109 0 109 35 2 c19 1 42 9 51 17 8 9 20 16 25 16 18 0 8 18
-13 24 -13 3 -36 17 -52 30 -27 23 -28 25 -16 61 21 65 72 111 148 134 37 11
76 27 87 35 19 15 22 13 49 -17 15 -17 37 -50 47 -72z m-5741 -131 c222 -51
428 -239 505 -461 133 -385 -74 -806 -460 -929 -117 -38 -269 -44 -389 -15
-253 61 -441 237 -528 496 -20 60 -23 89 -23 210 1 126 4 148 28 220 93 269
311 451 592 496 64 10 192 2 275 -17z m4060 -66 c-21 -51 -46 -126 -55 -166
l-18 -73 -35 53 c-20 29 -52 81 -73 115 -20 35 -39 60 -43 56 -9 -9 -7 -240 3
-291 l9 -44 -33 32 c-18 18 -50 56 -71 86 -22 29 -43 54 -48 54 -20 0 4 -183
37 -280 l33 -96 -45 25 c-26 13 -63 38 -84 54 -21 16 -40 27 -43 24 -8 -7 22
-150 51 -243 13 -43 23 -79 22 -81 -2 -1 -45 2 -97 6 -159 13 -148 -14 31 -76
l109 -38 55 -100 c70 -127 133 -211 228 -302 l75 -73 -42 6 c-74 12 -190 53
-256 91 -79 46 -213 178 -258 255 -150 253 -129 576 53 816 111 147 301 253
495 275 19 2 36 5 36 5 1 1 -15 -40 -36 -90z m287 57 c129 -37 270 -132 350
-236 65 -83 90 -130 126 -234 29 -84 31 -99 31 -225 -1 -117 -4 -145 -26 -212
-41 -122 -91 -204 -187 -298 -95 -94 -178 -144 -296 -178 -142 -41 -142 -41
-40 61 95 95 170 200 227 317 l33 67 85 28 c47 15 105 36 129 47 38 16 42 21
30 32 -11 10 -34 11 -103 5 -50 -5 -92 -7 -94 -4 -2 2 5 32 17 67 24 73 64
249 57 255 -2 2 -26 -11 -53 -30 -26 -19 -63 -42 -82 -52 -33 -16 -34 -16 -26
1 44 107 85 355 58 354 -5 -1 -28 -28 -53 -61 -53 -71 -97 -115 -87 -86 24 65
14 297 -12 297 -4 0 -18 -19 -31 -42 -13 -24 -42 -71 -65 -106 l-42 -62 -22
82 c-12 46 -37 119 -55 164 l-33 80 53 -7 c28 -4 78 -15 111 -24z m-2477 21
c0 -9 -36 -91 -88 -195 l-56 -115 -49 55 c-54 58 -107 127 -107 139 0 14 164
89 225 104 68 16 75 17 75 12z m298 -16 c180 -50 333 -166 431 -326 38 -63 85
-185 74 -194 -4 -3 -37 -19 -73 -34 -36 -16 -123 -61 -195 -100 -71 -39 -133
-72 -137 -74 -25 -11 -305 196 -400 294 l-47 49 31 45 c17 25 69 106 116 180
46 74 91 145 98 158 17 27 13 27 102 2z m1993 -22 c30 -60 66 -168 88 -266 18
-79 26 -101 35 -91 2 2 33 48 70 102 l66 99 0 -60 c0 -68 -21 -185 -44 -251
-9 -24 -14 -46 -12 -48 2 -2 41 39 87 91 46 52 87 95 90 95 8 1 -7 -90 -26
-157 -19 -62 -48 -124 -77 -161 -10 -13 -16 -26 -14 -28 5 -5 141 63 178 88
14 11 28 19 31 19 7 0 -46 -196 -62 -230 -16 -34 -10 -6 23 104 14 49 24 91
22 93 -2 2 -55 -22 -117 -54 -63 -32 -118 -60 -123 -62 -5 -2 11 21 34 50 24
30 54 78 67 108 24 55 57 180 50 188 -4 4 -73 -66 -152 -155 -21 -23 -39 -41
-41 -39 -2 1 8 33 21 69 31 85 57 215 53 263 l-3 37 -65 -96 c-65 -96 -80
-111 -80 -78 0 64 -100 382 -120 382 -13 0 -69 -149 -90 -240 -11 -47 -25
-102 -31 -124 l-10 -38 -43 58 c-23 33 -50 71 -60 87 -10 15 -21 27 -25 27
-13 0 9 -155 34 -245 13 -49 23 -90 21 -92 -1 -2 -43 40 -91 93 -49 53 -91 91
-93 84 -8 -22 49 -178 93 -255 24 -42 41 -75 37 -73 -4 2 -54 27 -111 56 -57
29 -105 51 -108 49 -5 -6 29 -129 53 -190 8 -21 10 -36 4 -32 -10 6 -51 135
-68 212 l-9 41 103 -55 c57 -30 104 -52 104 -49 0 4 -15 37 -34 74 -34 68 -69
174 -81 245 -6 37 -5 36 86 -63 50 -56 93 -99 95 -97 2 2 -2 21 -10 43 -16 47
-34 156 -39 242 -3 34 -4 62 -3 62 1 0 31 -43 67 -95 35 -52 67 -95 70 -95 3
0 18 50 32 110 21 88 94 290 104 290 2 0 12 -19 24 -42z m1588 -2 c9 -11 4
-17 -23 -30 -35 -17 -86 -22 -86 -8 0 9 70 51 86 52 6 0 17 -6 23 -14z m-333
-44 c-33 -4 -39 0 -30 21 5 15 8 15 32 -1 l26 -17 -28 -3z m-3834 -208 l97
-100 -75 -122 -75 -121 -82 65 c-45 37 -97 78 -115 93 l-34 26 37 71 c36 69
132 198 144 192 3 -2 50 -48 103 -104z m2593 -304 c15 -124 28 -231 31 -238 2
-8 28 15 64 58 33 40 60 70 60 67 0 -3 -20 -54 -45 -113 -25 -59 -44 -109 -42
-110 2 -2 95 8 207 22 111 13 207 23 212 22 5 -2 -95 -34 -222 -72 -148 -44
-234 -75 -239 -85 -4 -9 -18 -70 -30 -136 -13 -66 -25 -127 -28 -135 -3 -8
-18 50 -34 129 -16 80 -32 148 -36 152 -4 4 -109 37 -233 74 -216 63 -299 91
-240 80 40 -8 434 -54 437 -51 1 1 -13 40 -33 87 -56 131 -57 134 -41 121 8
-7 34 -37 58 -67 24 -30 46 -51 50 -47 3 4 19 119 35 255 16 136 32 240 36
230 4 -10 19 -119 33 -243z m1505 148 c-19 -51 -23 -56 -58 -62 -47 -8 -131
-8 -169 0 -27 5 -32 13 -46 61 l-15 55 34 -35 c64 -65 174 -59 234 13 19 23
36 38 38 32 1 -5 -7 -34 -18 -64z m-313 -37 c-14 -5 -18 5 -23 51 l-5 43 19
-45 c10 -25 14 -47 9 -49z m354 6 c-19 -19 -22 -1 -9 43 l13 42 3 -37 c2 -21
-1 -42 -7 -48z m-3636 -259 c44 -33 81 -64 83 -68 1 -3 -8 -11 -20 -17 -13 -6
-72 -45 -132 -87 l-108 -76 -152 147 -152 148 84 107 83 108 117 -101 c64 -56
153 -128 197 -161z m-715 121 c49 -33 94 -66 100 -74 9 -10 -7 -39 -74 -134
-47 -66 -90 -122 -94 -125 -12 -7 -28 50 -43 144 -13 87 -2 250 17 250 3 0 45
-27 94 -61z m-3519 -86 c217 -97 275 -383 114 -561 -41 -46 -144 -102 -184
-101 -14 0 -21 3 -16 5 12 5 12 109 0 194 -4 30 -8 104 -9 165 -1 60 -6 118
-10 128 -12 26 -41 21 -55 -10 -34 -73 -39 -113 -31 -229 6 -92 5 -122 -6
-143 -8 -14 -17 -43 -20 -64 -4 -20 -10 -39 -14 -42 -4 -2 -33 9 -66 24 -128
62 -202 190 -191 335 6 87 32 151 88 211 80 87 153 116 274 112 54 -2 95 -10
126 -24z m4849 -40 c0 -20 -5 -65 -11 -101 l-11 -64 -44 6 c-51 7 -234 65
-234 75 0 9 268 120 293 121 4 0 7 -17 7 -37z m3051 -14 c43 -15 95 -53 111
-82 7 -12 15 -65 18 -117 4 -75 8 -95 20 -95 8 0 15 -8 14 -17 0 -10 -1 -36
-2 -57 -1 -22 -9 -47 -18 -55 -8 -9 -18 -33 -21 -53 -4 -25 -25 -62 -63 -110
l-57 -71 -12 34 c-7 19 -16 34 -20 34 -4 0 -17 -23 -28 -51 -20 -45 -25 -50
-50 -47 -24 2 -31 12 -50 58 l-22 55 -17 -42 -17 -42 -57 72 c-38 48 -59 85
-63 110 -3 20 -13 44 -21 53 -9 9 -17 35 -17 60 -1 24 -2 50 -3 57 -1 6 6 12
14 12 12 0 16 20 20 97 6 115 19 139 100 181 45 22 66 27 130 27 42 0 92 -5
111 -11z m-4070 -116 c102 -105 151 -163 147 -172 -2 -4 -37 -36 -78 -71 -41
-35 -103 -90 -137 -123 l-61 -60 -29 21 c-74 53 -200 218 -189 248 3 8 54 73
112 144 l106 130 27 -19 c14 -11 60 -55 102 -98z m3691 -65 c-3 -50 -8 -76
-18 -81 -23 -13 -19 -134 6 -182 11 -22 20 -47 20 -56 0 -15 17 -40 84 -129
24 -31 -55 33 -88 72 -94 109 -104 286 -25 414 11 19 21 34 22 34 1 0 0 -33
-1 -72z m588 1 c46 -89 46 -219 -2 -312 -22 -44 -91 -123 -122 -139 -24 -13
-25 -14 37 63 20 25 37 54 37 64 0 10 9 37 20 59 26 55 31 163 8 180 -12 9
-17 32 -20 84 -3 79 2 79 42 1z m-3540 -21 c74 -42 147 -82 163 -89 15 -7 27
-15 27 -20 0 -17 -92 -129 -152 -185 -57 -53 -211 -147 -220 -134 -33 45 -175
220 -215 267 l-53 61 75 47 c89 56 228 133 235 131 3 0 66 -36 140 -78z m1394
-92 c66 -126 189 -276 289 -350 l37 -28 47 38 c107 88 194 193 272 329 55 96
68 107 25 22 -66 -130 -226 -323 -317 -382 -27 -17 -28 -17 -68 11 -58 40
-180 173 -232 252 -58 89 -109 182 -100 182 5 0 25 -33 47 -74z m-6079 -188
c-2 -10 -7 -24 -12 -31 -4 -6 -9 -23 -11 -37 -1 -14 -5 -32 -9 -40 -3 -8 -5
-18 -5 -22 1 -5 -3 -8 -9 -8 -7 0 -9 12 -5 33 3 17 9 86 12 152 l7 119 18 -74
c9 -41 16 -82 14 -92z m4214 45 c58 -81 130 -209 131 -232 0 -19 -225 -9 -300
14 -68 21 -170 65 -170 74 0 18 252 220 275 220 6 1 35 -34 64 -76z m-3267 6
c136 -28 261 -126 323 -253 140 -286 -38 -624 -352 -669 -143 -21 -276 21
-383 120 -102 94 -150 205 -150 344 0 296 272 518 562 458z m2213 -294 c279
-73 428 -391 306 -652 -36 -76 -122 -169 -191 -207 l-50 -27 0 103 c0 122 13
154 61 144 24 -5 33 0 56 30 24 32 26 39 16 74 -9 35 -7 46 23 105 62 122 56
197 -21 282 -71 80 -193 123 -351 123 -157 0 -297 -83 -330 -197 -19 -66 -8
-129 37 -217 31 -58 31 -59 14 -97 -17 -37 -17 -38 9 -72 24 -31 31 -35 61
-30 48 8 59 -18 62 -144 1 -57 -1 -103 -3 -103 -18 0 -95 49 -135 87 -100 93
-149 207 -149 343 0 140 47 248 149 342 121 113 279 153 436 113z m-1193 -257
c92 -27 129 -133 71 -198 -24 -26 -101 -65 -111 -55 -2 1 11 24 27 51 53 83
33 151 -42 142 -29 -3 -33 -1 -29 14 2 10 -1 18 -7 18 -6 0 -11 -6 -11 -13 0
-7 -15 -28 -34 -46 -30 -29 -56 -94 -43 -107 2 -2 26 18 54 46 59 59 93 66 93
20 0 -45 -81 -130 -124 -130 -76 1 -156 67 -156 130 0 43 34 93 80 117 49 26
164 32 232 11z m968 -153 c22 -10 40 -22 40 -26 0 -27 -118 -20 -142 9 -20 23
-28 59 -21 92 l5 27 39 -42 c21 -23 57 -50 79 -60z m330 50 c0 -54 -22 -81
-74 -91 -39 -7 -86 1 -86 15 0 5 20 19 45 31 25 12 58 37 73 56 15 19 30 34
35 34 4 0 7 -20 7 -45z m1119 26 c84 -26 137 -60 199 -125 173 -183 171 -462
-3 -645 -51 -54 -169 -130 -182 -118 -2 3 6 11 19 18 170 88 301 386 223 506
-14 20 -43 35 -32 16 9 -15 -14 -128 -28 -143 -13 -12 -15 -12 -15 5 0 11 9
52 20 90 11 38 20 88 20 110 0 60 -41 138 -91 174 -55 40 -77 41 -49 3 22 -30
19 -56 -7 -67 -23 -8 -34 6 -40 56 -3 24 -10 52 -15 62 -11 21 -38 23 -38 2 0
-19 -41 -36 -69 -28 -27 7 -27 30 -1 38 52 17 -16 45 -108 45 -85 0 -136 -38
-186 -138 -25 -49 -55 -67 -48 -28 4 25 -15 19 -35 -10 -14 -22 -15 -32 -5
-70 7 -24 12 -51 12 -60 0 -22 -19 -7 -31 24 -10 26 -11 26 -25 7 -39 -53 -36
-118 10 -178 14 -19 26 -39 26 -45 0 -23 -21 -11 -41 23 -12 19 -23 35 -26 35
-3 0 -3 -33 -1 -72 4 -55 12 -88 36 -135 35 -69 127 -173 185 -210 60 -37 36
-39 -33 -2 -276 147 -333 524 -114 743 56 56 147 110 210 125 70 16 197 12
263 -8z m-231 -86 c-14 -32 5 -59 40 -52 20 4 23 1 18 -18 -9 -34 3 -55 29
-55 15 0 26 8 30 21 7 20 7 20 27 2 19 -17 20 -17 34 1 9 13 10 24 3 37 -6 13
-6 19 0 19 6 0 15 -19 22 -42 6 -24 13 -49 15 -55 5 -18 43 -16 51 3 4 12 8
11 17 -8 6 -13 21 -27 33 -32 16 -8 22 -20 23 -55 5 -97 0 -192 -10 -209 -10
-15 -11 -15 -6 3 11 48 17 136 9 147 -4 8 -12 -15 -18 -57 -8 -59 -14 -71 -35
-82 l-24 -12 24 -9 c37 -14 62 -47 70 -90 5 -31 2 -43 -22 -74 -23 -29 -37
-38 -66 -40 -34 -3 -37 -6 -40 -37 -5 -45 -22 -64 -39 -42 -11 14 -13 12 -14
-14 -1 -17 -3 -23 -6 -12 -6 25 -23 21 -23 -5 0 -19 -2 -20 -10 -8 -9 13 -11
13 -20 0 -8 -13 -10 -12 -10 3 0 9 -4 17 -10 17 -5 0 -10 -7 -10 -15 0 -8 -5
-15 -11 -15 -5 0 -7 5 -4 10 3 5 2 10 -4 10 -5 0 -12 -6 -14 -12 -3 -7 -6 -3
-6 10 -1 24 -21 31 -21 7 0 -8 -4 -15 -9 -15 -5 0 -7 9 -4 20 3 11 0 20 -6 20
-6 0 -11 -6 -12 -12 0 -10 -2 -10 -6 0 -2 6 -9 10 -14 6 -5 -3 -9 7 -9 21 0
44 -17 65 -53 65 -25 0 -38 8 -59 34 -30 38 -34 59 -18 101 11 29 48 64 68 65
17 0 15 20 -3 20 -14 0 -21 18 -44 115 -9 38 -10 37 -8 -22 1 -34 -2 -65 -7
-70 -4 -4 -5 35 -2 87 3 52 6 103 6 112 1 10 6 17 12 15 6 -1 21 14 32 34 18
31 24 35 39 25 26 -16 39 9 32 64 -5 37 -2 51 15 73 27 34 43 35 28 2z m-1142
-163 c-13 -12 -17 8 -10 40 l9 33 3 -33 c2 -19 1 -36 -2 -40z m74 21 c0 -13
-4 -23 -10 -23 -5 0 -10 17 -10 38 0 27 3 33 10 22 5 -8 10 -25 10 -37z
m-1158 -12 c13 -11 33 -38 43 -60 19 -43 42 -57 29 -18 -4 12 -8 33 -8 46 -2
68 68 5 84 -77 18 -89 29 -106 29 -47 1 55 16 92 44 109 27 16 47 -15 40 -62
-18 -124 -124 -225 -264 -252 -189 -37 -389 104 -389 274 0 46 25 59 52 27 13
-17 18 -40 18 -84 0 -72 10 -67 27 14 14 68 45 119 74 119 22 0 26 -29 8 -61
-24 -45 -1 -37 28 9 17 28 40 55 50 60 16 9 15 3 -9 -46 -67 -137 -51 -273 36
-302 60 -20 123 20 152 96 39 101 -40 180 -100 101 -37 -48 -32 -64 8 -30 18
15 31 31 29 36 -2 4 5 7 15 7 13 0 24 -11 31 -31 15 -43 -1 -97 -38 -133 -23
-22 -36 -27 -67 -24 -51 4 -66 32 -61 113 6 81 76 235 107 235 4 0 18 -9 32
-19z m2082 -286 c3 -8 1 -15 -4 -15 -6 0 -10 7 -10 15 0 8 2 15 4 15 2 0 6 -7
10 -15z m196 -368 c16 0 30 -4 30 -9 0 -5 6 -6 13 -1 6 4 25 8 41 9 15 1 41
11 57 23 35 26 37 21 7 -12 -13 -13 -29 -22 -35 -20 -7 3 -13 0 -13 -6 0 -6
-6 -8 -14 -5 -7 3 -16 -1 -19 -9 -6 -16 -67 -11 -67 6 0 6 -3 7 -7 4 -3 -4
-12 -2 -20 4 -7 6 -13 8 -13 4 0 -11 -30 16 -41 38 -10 17 -7 16 20 -4 17 -12
44 -22 61 -22z m-569 1 c69 -32 129 -90 165 -160 40 -76 45 -199 13 -283 -78
-208 -339 -289 -525 -162 -98 67 -164 210 -150 320 19 143 91 238 223 293 79
33 191 30 274 -8z"/>
<path d="M4920 9156 l0 -234 152 -107 c84 -59 157 -109 164 -112 7 -2 84 46
173 107 l161 111 0 235 c0 129 -2 234 -4 234 -2 0 -73 -39 -157 -86 -85 -48
-158 -87 -164 -87 -5 0 -79 39 -164 86 -84 48 -155 87 -157 87 -2 0 -4 -105
-4 -234z"/>
<path d="M6287 8967 c-46 -53 -107 -147 -107 -165 0 -7 -4 -12 -8 -12 -13 0
-42 -67 -42 -96 0 -18 19 -45 62 -90 60 -63 93 -82 82 -46 -4 12 -3 13 4 4 7
-10 16 -5 40 23 18 20 32 32 32 28 0 -4 -14 -21 -30 -38 -20 -20 -28 -37 -24
-48 10 -26 138 -96 157 -86 11 7 17 4 22 -10 3 -11 28 -28 59 -40 l52 -22 49
21 c27 11 54 28 60 37 7 9 17 13 23 10 13 -9 152 70 159 91 4 9 -10 29 -35 54
-45 42 -50 51 -28 42 9 -3 16 2 19 13 2 10 3 6 1 -9 -2 -20 5 -34 32 -57 19
-17 38 -31 42 -31 11 0 108 101 121 126 5 12 9 31 6 42 -5 26 -80 163 -105
192 -11 13 -20 26 -20 30 0 3 -14 22 -30 40 -30 34 -30 34 -45 13 -8 -12 -37
-29 -64 -38 -59 -19 -110 -68 -141 -134 -26 -57 -23 -73 22 -101 62 -38 141
-14 168 49 13 32 24 39 35 21 3 -5 0 -10 -8 -10 -9 0 -24 -26 -38 -62 -12 -35
-29 -73 -37 -85 -8 -13 -12 -23 -8 -23 3 0 -12 -16 -34 -36 -22 -20 -40 -43
-40 -51 0 -8 -4 -11 -10 -8 -5 3 -23 -1 -39 -10 -39 -20 -72 -19 -118 3 -39
18 -98 76 -121 119 -9 16 -19 22 -29 19 -13 -5 -13 -4 -4 8 9 11 7 26 -9 67
l-21 54 23 -27 c45 -52 100 -62 156 -28 44 27 48 43 26 93 -29 66 -88 123
-145 142 -28 10 -55 26 -62 36 -15 25 -17 24 -50 -14z m20 -19 c-3 -8 -6 -5
-6 6 -1 11 2 17 5 13 3 -3 4 -12 1 -19z m136 -71 c51 -40 93 -112 77 -132 -16
-20 -84 -19 -115 1 -27 18 -50 70 -60 137 l-7 47 33 -12 c19 -6 51 -24 72 -41z
m381 6 c-15 -105 -52 -153 -120 -153 -62 0 -72 19 -40 75 36 61 99 108 164
124 2 1 0 -20 -4 -46z m-517 31 c-3 -3 -12 -4 -19 -1 -8 3 -5 6 6 6 11 1 17
-2 13 -5z m-40 -101 c-3 -10 -5 -2 -5 17 0 19 2 27 5 18 2 -10 2 -26 0 -35z
m73 -33 c0 -5 -7 -10 -16 -10 -8 0 -12 5 -9 10 3 6 10 10 16 10 5 0 9 -4 9
-10z m-74 -34 c1 -9 -5 -12 -17 -9 -14 4 -15 8 -6 18 13 14 20 12 23 -9z m658
9 c3 -8 1 -15 -4 -15 -6 0 -10 7 -10 15 0 8 2 15 4 15 2 0 6 -7 10 -15z m-742
-33 c-7 -2 5 -20 30 -44 l43 -40 -44 36 c-25 20 -48 36 -52 36 -5 0 -6 6 -3
14 3 9 12 12 22 9 11 -5 12 -8 4 -11z m691 -15 c-15 -19 -30 -32 -32 -30 -5 3
49 63 57 63 2 0 -9 -15 -25 -33z m140 19 c3 -8 0 -17 -8 -20 -7 -2 -16 2 -19
10 -3 9 -1 12 4 9 6 -3 10 -1 10 4 0 15 7 14 13 -3z m-708 -16 c10 -11 16 -20
13 -20 -3 0 -13 9 -23 20 -10 11 -16 20 -13 20 3 0 13 -9 23 -20z m675 -13 c0
-1 -13 -15 -30 -30 -16 -16 -30 -26 -30 -22 0 3 12 17 26 30 25 23 34 29 34
22z m-643 -59 c-3 -8 -6 -5 -6 6 -1 11 2 17 5 13 3 -3 4 -12 1 -19z m6 -115
c-7 -2 -19 -2 -25 0 -7 3 -2 5 12 5 14 0 19 -2 13 -5z m494 1 c-3 -3 -12 -4
-19 -1 -8 3 -5 6 6 6 11 1 17 -2 13 -5z m-435 -26 c13 -13 17 -18 8 -12 -8 6
-24 16 -35 22 -11 6 -15 12 -8 12 7 0 22 -10 35 -22z m379 3 c-13 -10 -32 -29
-43 -42 -17 -22 -18 -22 -9 -2 11 21 57 63 70 63 3 0 -5 -9 -18 -19z m-188
-48 c-7 -2 -21 -2 -30 0 -10 3 -4 5 12 5 17 0 24 -2 18 -5z"/>
<path d="M8821 8449 c-102 -19 -188 -101 -224 -214 -39 -123 -29 -341 20 -424
28 -49 143 -175 151 -166 3 3 10 -5 16 -17 19 -39 76 -70 115 -64 35 5 91 50
91 73 0 7 6 10 13 7 14 -5 87 67 87 86 0 15 -11 12 -34 -7 -20 -18 -20 -18 0
9 14 19 22 23 32 16 16 -14 34 2 67 59 31 51 61 229 51 301 -11 81 -48 188
-81 234 -60 82 -191 128 -304 107z m263 -149 c-15 -22 -29 -40 -31 -40 -5 0 3
15 29 53 30 43 31 32 2 -13z m-384 15 c0 -12 -19 -12 -23 0 -4 9 -1 12 9 8 7
-3 14 -7 14 -8z m20 -45 c6 -11 8 -20 6 -20 -3 0 -10 9 -16 20 -6 11 -8 20 -6
20 3 0 10 -9 16 -20z m334 -80 c10 -13 9 -13 -6 -1 -10 7 -18 21 -17 30 0 13
1 14 6 1 3 -8 11 -22 17 -30z m-294 -3 c0 -4 -6 -2 -14 5 -8 7 -12 17 -9 22 5
8 23 -12 23 -27z m-65 -91 c43 -37 66 -67 92 -121 18 -40 36 -88 40 -108 5
-33 3 -38 -21 -47 -44 -16 -90 -12 -115 12 -37 33 -73 123 -79 193 -6 77 6
171 18 140 4 -11 34 -42 65 -69z m-5 59 c13 -14 21 -25 18 -25 -2 0 -15 11
-28 25 -13 14 -21 25 -18 25 2 0 15 -11 28 -25z m90 -20 c0 -5 -5 -3 -10 5 -5
8 -10 20 -10 25 0 6 5 3 10 -5 5 -8 10 -19 10 -25z m330 32 c0 -1 -24 -25 -52
-52 l-53 -50 50 53 c46 48 55 57 55 49z m55 -62 c12 -97 -33 -242 -87 -279
-41 -29 -138 -13 -138 23 0 9 15 51 33 95 26 63 45 92 102 150 39 39 73 70 76
69 4 -2 10 -28 14 -58z m-270 15 c3 -5 -1 -10 -10 -10 -9 0 -13 5 -10 10 3 6
8 10 10 10 2 0 7 -4 10 -10z m-95 -39 c0 -21 -13 -4 -17 22 -2 17 -1 19 7 7 5
-8 10 -21 10 -29z m187 7 c-3 -8 -6 -5 -6 6 -1 11 2 17 5 13 3 -3 4 -12 1 -19z
m-100 -90 c-3 -8 -6 -5 -6 6 -1 11 2 17 5 13 3 -3 4 -12 1 -19z m-3 -49 c-31
-12 -39 -10 -19 5 11 8 24 12 29 8 5 -3 1 -9 -10 -13z m17 -86 c7 -8 5 -10 -8
-7 -15 4 -18 12 -13 47 l5 42 3 -35 c2 -19 8 -40 13 -47z m-40 -76 c-10 -9
-11 -8 -5 6 3 10 9 15 12 12 3 -3 0 -11 -7 -18z m-37 -56 c-3 -3 -15 6 -27 18
l-22 24 27 -19 c14 -10 24 -21 22 -23z m149 15 c-10 -13 -21 -22 -26 -19 -4 2
3 13 15 23 30 26 32 25 11 -4z m-248 -26 l30 -35 -32 29 c-18 17 -33 34 -33
40 0 5 1 7 3 5 1 -2 16 -20 32 -39z m315 -24 c0 -2 -8 -10 -17 -17 -16 -13
-17 -12 -4 4 13 16 21 21 21 13z m-213 -62 c-3 -3 -12 -4 -19 -1 -8 3 -5 6 6
6 11 1 17 -2 13 -5z"/>
<path d="M5055 8143 c-99 -25 -181 -47 -182 -47 -6 -5 25 -218 33 -225 5 -4
70 -51 145 -104 l136 -97 11 -76 c5 -41 13 -78 16 -81 3 -3 13 0 21 7 12 10
19 10 27 2 20 -20 26 -14 32 28 20 132 4 110 159 221 78 56 143 103 145 104 7
6 28 216 22 220 -9 6 -368 95 -377 94 -4 0 -89 -21 -188 -46z"/>
<path d="M9747 7589 c-21 -5 -47 -14 -59 -20 -19 -10 -19 -12 18 -50 l38 -39
-44 -46 -45 -45 44 -41 44 -41 -43 -40 -42 -40 31 -31 31 -30 50 49 50 49 50
-49 50 -49 32 32 32 32 -39 40 -39 40 37 38 c20 21 37 42 37 48 0 5 -18 28
-41 49 l-40 40 38 33 c36 31 37 33 19 47 -21 16 -104 35 -144 34 -15 -1 -44
-5 -65 -10z"/>
<path d="M9604 7512 c-83 -68 -125 -204 -100 -319 l8 -33 74 0 c41 0 74 3 74
7 0 4 -12 20 -27 35 l-27 28 39 40 39 40 -42 42 -42 42 42 43 42 43 -24 25
c-28 30 -29 30 -56 7z"/>
<path d="M9980 7505 l-24 -25 42 -43 42 -43 -42 -42 -42 -42 42 -43 43 -44
-30 -26 c-17 -14 -31 -28 -31 -31 0 -3 33 -6 74 -6 l75 0 11 54 c13 64 2 144
-29 204 -22 43 -82 112 -98 112 -5 0 -20 -11 -33 -25z"/>
<path d="M9780 7175 l-34 -35 37 -38 37 -37 37 37 37 38 -34 35 c-19 19 -37
35 -40 35 -3 0 -21 -16 -40 -35z"/>
<path d="M9540 7110 c0 -21 81 -97 132 -126 48 -26 62 -29 148 -29 83 0 101 3
145 27 49 25 135 107 135 128 0 6 -33 10 -84 10 l-84 0 -54 -56 -54 -57 -54
57 -53 56 -88 0 c-54 0 -89 -4 -89 -10z"/>
<path d="M8766 7107 c-56 -36 -82 -62 -133 -133 -34 -49 -61 -95 -59 -104 3
-8 15 -53 27 -100 12 -47 29 -91 38 -97 13 -12 13 -13 -2 -13 -9 0 -19 -10
-22 -22 -9 -45 -25 -142 -25 -158 0 -8 41 -46 91 -83 l90 -68 67 9 c61 8 65
10 41 19 -31 14 -74 128 -92 247 -10 63 -16 81 -32 87 -17 7 -16 8 7 8 20 1
29 7 33 24 3 12 9 40 15 62 9 40 9 40 4 -9 -3 -27 -8 -54 -10 -61 -4 -8 16
-21 53 -36 57 -22 189 -37 339 -38 l62 -1 11 63 c7 36 8 82 3 112 l-7 50 -112
3 -112 3 -9 -33 -8 -33 -85 -8 c-56 -5 -85 -4 -87 3 -2 6 -10 17 -18 24 -8 8
-14 26 -14 40 0 14 -4 27 -10 31 -5 3 -6 13 -3 22 5 12 14 -4 28 -47 l21 -64
55 2 c104 5 106 6 118 73 11 66 -3 217 -23 243 -7 10 -39 17 -91 21 l-80 6
-69 -44z"/>
<path d="M9093 7063 l-52 -4 2 -90 2 -89 97 0 97 0 -6 58 c-3 31 -13 73 -22
92 -19 38 -26 40 -118 33z"/>
<path d="M8802 6671 c-10 -6 -12 -22 -7 -57 11 -90 11 -89 77 -117 52 -21 86
-26 189 -32 l125 -6 17 73 c10 40 17 78 17 84 0 7 -50 13 -142 17 -106 4 -158
11 -202 26 -33 12 -60 21 -60 21 -1 0 -7 -4 -14 -9z"/>
<path d="M8834 6473 c25 -102 23 -98 78 -116 44 -14 64 -15 119 -6 61 11 67
14 92 53 l26 41 -42 7 c-23 3 -72 7 -109 7 -43 1 -83 8 -113 21 -59 25 -58 25
-51 -7z"/>
<path d="M5092 5573 l3 -328 34 3 c63 5 137 64 176 143 47 92 55 230 19 340
-29 91 -122 168 -202 169 l-32 0 2 -327z"/>
<path d="M4210 5720 c0 -17 -89 -790 -95 -827 l-6 -33 104 0 c57 0 106 2 108
5 3 2 -16 179 -43 392 -26 213 -47 405 -48 425 0 20 -4 40 -10 43 -5 3 -10 1
-10 -5z"/>
<path d="M9205 5654 c-214 -90 -404 -170 -422 -178 l-31 -15 109 -261 c60
-144 111 -265 114 -270 3 -4 50 11 105 34 77 31 102 46 106 63 6 23 34 53 34
37 1 -37 20 -33 191 39 156 65 174 75 171 95 -4 24 9 28 39 11 30 -16 223 66
216 92 -3 10 -51 130 -108 268 -72 173 -109 250 -119 250 -8 0 -190 -75 -405
-165z m475 -104 c45 -107 86 -205 90 -217 8 -20 3 -24 -64 -52 -62 -26 -77
-29 -102 -19 -26 9 -48 3 -204 -62 -220 -91 -226 -94 -234 -123 -4 -19 -23
-31 -82 -56 -42 -18 -77 -31 -79 -29 -8 9 -185 441 -182 445 13 12 763 319
769 314 4 -3 44 -94 88 -201z"/>
<path d="M9215 5565 c-186 -78 -341 -147 -343 -153 -4 -14 144 -366 156 -370
22 -7 110 40 116 62 8 32 410 200 458 191 31 -6 128 25 128 40 0 21 -155 375
-164 374 -6 0 -164 -65 -351 -144z"/>
<path d="M9650 5818 c0 -14 207 -495 214 -498 5 -3 23 25 39 62 l30 68 -63
152 c-35 84 -68 158 -72 165 -12 15 -148 62 -148 51z"/>
<path d="M9165 5740 c-77 -33 -150 -64 -162 -69 -20 -9 -21 -14 -12 -41 6 -16
15 -30 21 -30 5 0 81 30 169 66 101 42 159 72 159 81 0 18 -19 53 -28 52 -4 0
-70 -27 -147 -59z"/>
<path d="M8701 5378 c-17 -37 -31 -72 -31 -78 0 -5 29 -81 66 -168 l65 -158
75 -26 c40 -15 74 -25 74 -22 0 8 -190 465 -205 494 -13 25 -14 24 -44 -42z"/>
<path d="M9415 5083 c-60 -26 -111 -47 -113 -48 -1 -1 7 -24 18 -50 l21 -48
47 46 48 47 72 0 c40 0 72 2 72 4 0 12 -42 96 -48 95 -4 0 -56 -21 -117 -46z"/>
<path d="M9403 4960 c-24 -26 -43 -53 -43 -58 0 -5 7 -27 16 -47 l15 -38 54
53 c29 29 57 50 62 47 4 -3 34 -2 65 2 l57 6 -19 43 -19 42 -73 0 -73 -1 -42
-49z"/>
<path d="M9452 4845 l-51 -56 17 -37 c9 -20 18 -39 19 -41 2 -3 25 16 51 42
l48 47 72 0 72 0 -15 38 c-9 20 -19 40 -23 43 -4 4 -37 10 -73 14 l-66 6 -51
-56z"/>
<path d="M9497 4726 l-48 -54 18 -38 c9 -22 19 -41 20 -43 2 -3 25 16 51 42
l48 47 72 0 72 0 -15 38 c-9 20 -20 41 -24 45 -4 4 -39 10 -77 12 l-69 5 -48
-54z"/>
<path d="M9856 4335 c-78 -28 -128 -100 -142 -205 -4 -30 -11 -58 -15 -61 -22
-14 -9 -141 17 -167 8 -7 14 -27 14 -44 0 -23 14 -44 61 -93 113 -118 163
-122 275 -20 60 54 72 71 78 105 4 23 13 52 22 65 23 35 30 127 12 146 -8 8
-17 43 -21 78 -14 156 -155 248 -301 196z m14 -65 c6 -11 8 -20 6 -20 -3 0
-10 9 -16 20 -6 11 -8 20 -6 20 3 0 10 -9 16 -20z m-45 -51 c14 -18 40 -58 56
-90 25 -51 33 -59 57 -59 25 0 32 8 57 60 16 32 43 74 61 91 l33 32 20 -33
c14 -24 17 -38 10 -51 -14 -28 -11 -120 6 -139 20 -22 0 -79 -43 -123 -28 -28
-32 -40 -32 -85 0 -43 -5 -57 -32 -88 -28 -32 -33 -34 -44 -20 -15 21 -60 20
-73 -1 -9 -17 -12 -16 -37 9 -22 21 -29 40 -36 94 -6 58 -13 73 -42 103 -38
40 -55 94 -36 116 8 10 11 39 8 87 -5 71 9 128 31 128 5 0 21 -14 36 -31z
m129 -35 c9 -3 16 -11 16 -16 0 -6 -6 -6 -14 1 -11 10 -20 10 -38 0 -21 -11
-22 -11 -9 4 15 19 21 20 45 11z m-4 -38 c0 -8 -4 -17 -9 -20 -10 -7 -23 19
-14 28 11 11 23 6 23 -8z m-162 -271 c-3 -3 -9 2 -12 12 -6 14 -5 15 5 6 7 -7
10 -15 7 -18z m291 -89 c-9 -8 -10 -3 -5 23 3 18 7 45 8 60 1 14 3 4 5 -23 3
-30 0 -53 -8 -60z m-279 38 c0 -19 -4 -33 -8 -30 -8 5 -4 66 4 66 2 0 4 -16 4
-36z"/>
<path d="M1518 3974 c12 -9 22 -23 22 -30 0 -18 56 -70 93 -85 15 -6 26 -14
25 -18 -2 -3 -24 -47 -50 -97 l-47 -92 -66 6 c-59 4 -68 2 -90 -18 -16 -15
-25 -19 -25 -10 0 20 -42 -23 -69 -70 l-22 -39 42 -46 c46 -50 67 -55 126 -30
34 15 52 30 53 47 0 3 -18 5 -40 5 -22 -1 -40 -5 -40 -9 0 -5 -10 -8 -21 -8
-21 0 -21 1 5 25 15 14 35 25 44 26 9 0 27 2 40 3 25 3 25 3 13 -118 -10 -91
-1 -132 35 -171 20 -22 32 -26 60 -23 27 3 33 1 29 -10 -4 -10 0 -12 12 -7 10
4 25 8 33 9 8 0 26 11 40 24 14 12 28 22 32 22 5 0 8 4 8 10 0 5 -7 7 -15 4
-24 -10 -17 2 13 22 26 17 27 17 12 -1 -13 -15 -13 -17 -1 -14 8 3 19 14 25
24 6 11 30 40 53 64 23 25 40 47 39 49 -2 2 -24 -6 -48 -18 -24 -11 -54 -22
-65 -24 -12 -3 -36 -12 -55 -21 l-33 -16 23 20 c12 11 28 21 35 24 6 2 9 7 6
11 -3 3 -25 -4 -48 -16 -41 -23 -42 -23 -57 -4 -8 11 -12 27 -10 35 2 9 7 38
11 64 3 27 12 50 18 51 7 2 53 9 102 15 126 17 154 28 153 62 -1 25 -5 28 -57
35 -31 5 -80 7 -108 5 -29 -2 -53 1 -53 6 0 13 88 161 101 169 7 4 40 8 74 9
81 2 128 32 123 78 -2 25 -10 33 -38 42 -22 8 -41 9 -53 3 -23 -12 -12 -28 19
-28 13 0 24 -4 24 -10 0 -6 -27 -10 -60 -10 -33 0 -60 3 -60 7 0 4 10 17 21
29 l22 23 -26 12 c-22 10 -31 9 -52 -5 -79 -51 -67 -49 -128 -17 -30 16 -66
29 -79 29 -12 -1 -39 2 -58 6 -35 7 -35 7 -12 -10z"/>
<path d="M8754 3385 c-42 -17 -48 -30 -29 -59 35 -52 121 -54 158 -3 16 21 18
29 8 41 -17 20 -69 37 -77 25 -4 -6 -10 -7 -17 0 -8 6 -23 5 -43 -4z m99 -57
c-2 -5 -24 -8 -48 -8 -24 0 -46 3 -48 8 -3 4 19 7 48 7 29 0 51 -3 48 -7z"/>
<path d="M2620 3492 c-22 -8 -8 -20 30 -26 32 -5 43 -12 51 -33 6 -17 9 -157
7 -384 -3 -382 -4 -389 -54 -389 -15 0 -24 -6 -24 -15 0 -12 17 -15 93 -15 52
0 136 -3 187 -7 l93 -6 -7 -91 c-8 -98 -16 -116 -52 -116 -15 0 -24 -6 -24
-15 0 -13 15 -15 88 -14 48 0 134 -2 192 -6 276 -18 437 99 488 357 44 222
-69 443 -250 489 -45 12 -52 18 -75 64 -51 100 -123 161 -225 190 -51 14 -105
18 -286 19 -122 0 -227 0 -232 -2z m412 -76 c25 -7 66 -28 92 -45 47 -32 105
-106 93 -118 -4 -3 -75 -6 -158 -7 -112 -1 -153 -4 -157 -13 -2 -9 7 -13 25
-13 16 0 38 -6 49 -14 18 -13 19 -30 22 -270 l3 -256 -33 1 c-52 0 -101 22
-115 49 -9 19 -13 110 -13 356 0 182 3 334 7 337 12 12 138 7 185 -7z m224
-247 c4 -6 9 -51 12 -100 5 -93 -9 -192 -35 -244 -16 -32 -82 -105 -95 -105
-4 0 -8 104 -8 230 l0 230 59 0 c33 0 63 -5 67 -11z m224 -111 c56 -77 74
-140 74 -268 1 -226 -63 -323 -233 -351 -75 -12 -149 2 -173 31 -14 17 -18 40
-18 99 l0 76 45 19 c133 54 234 229 235 404 0 50 1 52 20 42 11 -6 34 -29 50
-52z"/>
<path d="M818 2733 c-3 -186 -5 -208 -20 -211 -13 -3 -17 6 -20 40 l-3 43 -57
3 -58 3 0 -48 c1 -91 47 -133 148 -133 106 0 102 -9 102 210 l0 190 25 0 c24
0 25 3 25 55 l0 55 -70 0 -70 0 -2 -207z"/>
<path d="M1000 2885 c0 -52 1 -55 25 -55 l25 0 0 -190 c0 -219 -4 -211 100
-211 98 -1 150 47 150 140 l0 41 -59 0 -60 0 -3 -42 c-2 -30 -8 -43 -18 -43
-13 0 -15 31 -18 208 l-2 207 -70 0 -70 0 0 -55z"/>
<path d="M8747 2788 c-10 -21 -17 -54 -17 -75 0 -22 -9 -48 -20 -63 -26 -33
-26 -86 -1 -99 10 -6 30 -32 43 -58 24 -45 51 -69 47 -42 -1 8 -1 26 0 42 1
21 6 27 24 27 35 0 57 30 57 77 0 39 -2 41 -49 62 l-50 21 -6 57 c-10 89 -11
91 -28 51z m88 -208 c8 -13 -45 -13 -65 0 -11 7 -6 10 22 10 20 0 40 -4 43
-10z"/>
<path d="M9059 2768 c-2 -69 -11 -86 -59 -110 -40 -21 -45 -27 -48 -61 -4 -45
19 -77 54 -77 18 0 23 -7 29 -42 7 -40 8 -41 22 -22 8 10 21 33 29 51 8 18 23
37 34 43 27 14 27 69 0 103 -11 14 -20 40 -20 60 0 40 -18 97 -31 97 -5 0 -9
-19 -10 -42z m6 -188 c-3 -5 -20 -10 -36 -10 -18 0 -28 4 -24 10 3 6 20 10 36
10 18 0 28 -4 24 -10z"/>
<path d="M1980 2332 c-18 -11 -35 -23 -37 -28 -2 -5 17 -30 42 -54 35 -34 48
-41 57 -32 34 34 68 1 68 -66 0 -39 0 -39 46 -46 87 -12 84 -14 84 62 0 85
-22 128 -80 159 -54 29 -131 31 -180 5z"/>
<path d="M1507 2324 c-9 -10 -9 -274 1 -274 4 0 6 -59 4 -132 -2 -100 0 -133
10 -139 10 -7 10 -9 1 -9 -8 0 -13 -13 -13 -30 l0 -30 190 0 190 0 0 59 c0 51
-3 61 -20 66 -33 11 -40 39 -43 177 l-3 133 28 -27 c15 -14 28 -33 28 -41 0
-8 7 -18 16 -21 15 -6 16 -20 11 -114 -4 -62 -3 -122 3 -143 36 -128 242 -143
313 -21 14 23 20 54 21 105 l1 72 -67 3 -68 3 0 -60 c0 -57 -15 -91 -40 -91
-19 0 -40 34 -40 65 0 24 -5 35 -17 38 -13 3 -11 5 6 6 23 1 24 2 18 69 -4 37
-7 99 -7 138 l0 71 -55 38 c-31 21 -58 36 -60 33 -10 -10 -23 -105 -18 -133
l4 -30 -15 25 c-8 14 -18 32 -22 40 -22 53 -41 80 -61 89 -13 6 -21 16 -18 21
3 6 3 19 0 31 -10 31 -49 21 -53 -13 -4 -32 -19 -36 -37 -11 -15 20 -45 11
-45 -14 0 -10 -5 -25 -10 -33 -7 -11 -9 -1 -7 35 l2 50 -60 3 c-34 2 -64 0
-68 -4z m207 -224 c-4 -30 -13 -77 -21 -105 -8 -27 -18 -74 -21 -103 -12 -92
-27 -53 -29 73 -1 110 -3 120 -20 118 -10 -1 -12 0 -5 3 7 3 12 24 12 50 0 25
4 43 9 40 5 -4 20 -2 33 3 36 14 50 -12 42 -79z m-124 -29 c-8 -5 -26 -11 -40
-15 -21 -5 -20 -3 5 9 32 15 60 20 35 6z m187 -156 l3 -85 -30 0 c-26 0 -30 4
-30 29 0 41 38 156 48 146 3 -3 7 -44 9 -90z"/>
<path d="M5108 1343 c-30 -8 -20 -23 15 -23 17 0 47 -9 65 -20 36 -22 42 -24
42 -11 0 12 -74 61 -91 60 -7 -1 -22 -3 -31 -6z"/>
<path d="M5305 1319 c-20 -18 -34 -33 -32 -36 2 -2 24 8 48 21 27 16 52 23 66
20 26 -7 32 11 7 20 -31 12 -54 5 -89 -25z"/>
<path d="M5042 1264 c-31 -22 -30 -69 3 -90 14 -9 45 -19 69 -21 38 -5 48 -2
70 20 44 44 35 61 -44 90 -56 21 -70 21 -98 1z"/>
<path d="M5345 1260 c-62 -23 -72 -55 -28 -90 33 -26 95 -24 138 4 33 21 34
68 3 90 -28 20 -50 19 -113 -4z"/>
<path d="M5217 1151 c-19 -32 -23 -96 -7 -106 6 -4 17 -1 25 5 12 10 18 10 31
-1 34 -28 47 47 17 100 -22 39 -44 39 -66 2z"/>
<path d="M4435 921 c-59 -17 -86 -31 -131 -73 -59 -54 -85 -107 -92 -184 -6
-82 17 -150 73 -212 108 -121 281 -128 404 -17 54 49 52 60 -4 28 -40 -22 -55
-25 -115 -21 -57 3 -77 9 -112 34 -123 86 -123 262 0 349 39 27 52 30 115 30
40 0 82 -4 95 -8 13 -5 22 -4 22 2 0 5 -28 24 -63 41 -66 32 -142 45 -192 31z"/>
<path d="M5890 10271 c-14 -5 -38 -14 -54 -20 l-29 -12 27 -28 c27 -28 28 -28
69 -14 64 22 179 14 247 -18 70 -33 136 -99 169 -169 22 -47 26 -70 27 -154 1
-95 2 -99 27 -114 14 -9 30 -13 34 -8 4 4 8 60 8 125 0 111 -1 119 -32 182
-42 84 -118 160 -202 201 -58 29 -75 33 -165 35 -56 1 -112 -1 -126 -6z"/>
<path d="M5775 10220 c-8 -13 71 -106 149 -175 l59 -53 -21 -23 c-51 -53 -32
-139 41 -187 48 -32 133 -36 184 -9 l32 17 79 -55 c44 -30 82 -55 85 -55 3 0
7 8 9 18 4 13 -16 32 -72 71 l-77 54 19 49 c23 61 24 131 2 149 -19 16 -131
19 -206 6 l-47 -8 -108 105 c-59 59 -110 106 -114 106 -4 0 -11 -5 -14 -10z"/>
<path d="M2618 9516 c-65 -17 -153 -73 -200 -126 -99 -111 -129 -245 -91 -402
19 -80 13 -101 -34 -106 -23 -2 -41 7 -79 38 -216 180 -528 171 -737 -20 -198
-182 -240 -489 -97 -708 145 -222 414 -318 656 -234 45 16 108 47 140 70 65
46 88 50 122 26 43 -30 45 -58 13 -133 -60 -136 -76 -213 -75 -366 0 -100 5
-158 17 -202 19 -68 13 -104 -22 -122 -44 -24 -71 -13 -147 58 -213 203 -512
217 -745 35 -100 -79 -148 -50 -116 71 55 207 -37 407 -231 498 -63 30 -74 32
-177 32 -104 0 -114 -2 -176 -32 -124 -61 -220 -189 -237 -319 -22 -171 38
-307 186 -416 42 -31 52 -44 52 -68 0 -40 -30 -57 -113 -63 -47 -3 -85 -14
-125 -33 -51 -26 -57 -32 -56 -59 1 -19 -1 -22 -3 -7 -2 12 -9 22 -14 22 -5 0
-9 -39 -9 -87 -1 -57 -6 -97 -15 -113 -10 -18 -14 -60 -15 -143 l0 -117 73
-82 c81 -91 97 -102 97 -64 0 36 47 58 122 58 69 0 108 -20 108 -57 0 -14 4
-25 9 -25 11 0 93 84 141 145 l32 40 -4 110 c-2 87 -7 117 -21 139 -16 23 -18
43 -15 112 2 64 0 83 -9 79 -7 -2 -13 2 -13 10 0 8 -5 15 -10 15 -17 0 -50 39
-50 58 0 41 25 56 104 63 80 8 160 38 219 83 42 33 82 34 101 3 14 -20 13 -30
-10 -102 -35 -108 -41 -203 -20 -296 60 -269 281 -449 549 -449 149 0 273 50
384 154 141 131 192 284 173 515 -4 47 -2 56 19 72 13 10 38 19 56 19 27 0 41
-9 73 -46 l39 -45 31 70 31 70 -35 58 c-86 144 -117 356 -75 524 35 141 91
240 196 344 122 123 234 179 418 210 36 6 41 11 69 71 17 36 28 68 24 71 -10
11 -188 -16 -256 -38 -104 -33 -200 -85 -288 -154 -91 -72 -124 -81 -160 -42
-28 29 -28 58 0 133 16 46 21 83 22 169 0 95 -3 120 -27 189 -26 73 -27 80
-12 102 20 32 59 31 102 -2 18 -14 59 -37 91 -52 51 -24 69 -27 167 -27 104 0
114 2 176 32 79 39 169 130 204 205 89 195 20 420 -163 537 -91 57 -225 76
-334 47z m265 -90 c72 -35 149 -118 176 -191 46 -124 19 -262 -70 -360 -30
-32 -73 -65 -107 -82 -50 -24 -69 -28 -147 -28 -76 0 -99 4 -146 26 -79 37
-133 90 -171 167 -30 60 -33 76 -33 152 0 70 5 95 26 140 46 98 118 162 222
196 65 22 181 12 250 -20z m-948 -476 c91 -15 191 -69 258 -139 297 -311 56
-818 -373 -788 -137 9 -254 73 -337 182 -59 77 -85 152 -91 258 -6 110 15 194
68 275 71 109 172 181 294 207 76 17 105 17 181 5z m-973 -1119 c74 -36 133
-94 170 -169 30 -59 33 -76 33 -152 0 -76 -4 -93 -33 -152 -128 -261 -501
-261 -629 0 -25 50 -28 68 -28 152 0 82 4 103 26 150 43 89 118 155 214 187
61 20 189 11 247 -16z m819 -481 c220 -42 379 -234 379 -460 0 -299 -270 -520
-562 -459 -240 50 -405 287 -368 527 41 263 291 441 551 392z m-1094 -406 c26
-9 60 -25 75 -35 32 -23 35 -23 41 -1 3 9 3 -8 0 -38 -6 -56 -23 -94 -23 -51
0 23 -35 81 -49 81 -4 0 -8 -21 -10 -47 -1 -27 -6 -77 -12 -112 -10 -67 -5
-80 32 -81 25 0 27 -7 16 -55 -8 -34 -16 -46 -38 -55 -42 -18 -104 -4 -117 26
-15 31 -36 31 -50 0 -12 -28 -57 -41 -103 -31 -23 5 -35 16 -45 41 -20 48 -18
74 5 74 46 0 48 5 35 88 -7 42 -13 94 -13 115 -1 20 -5 37 -10 37 -13 0 -51
-63 -52 -86 -1 -14 -3 -13 -9 6 -15 48 -11 65 22 85 94 55 212 70 305 39z
m-350 -291 c-3 -10 -5 -4 -5 12 0 17 2 24 5 18 2 -7 2 -21 0 -30z m477 -57
c-4 -31 -9 -54 -12 -52 -2 3 -1 30 3 61 3 31 9 55 11 52 3 -2 2 -30 -2 -61z
m-460 -16 c4 -31 3 -40 -4 -30 -5 8 -10 30 -10 49 0 45 6 37 14 -19z m102
-147 c-9 -9 -56 42 -56 60 0 6 14 -3 32 -20 18 -18 28 -36 24 -40z m270 19
c-36 -36 -46 -19 -10 19 16 17 30 25 33 18 2 -6 -8 -23 -23 -37z"/>
<path d="M2461 9310 c-16 -23 -38 -62 -47 -87 l-18 -46 39 -31 c22 -17 51 -41
65 -53 24 -21 24 -22 4 -23 -12 0 -26 10 -32 23 l-11 22 -7 -22 c-4 -16 -14
-23 -30 -23 -27 0 -32 -15 -8 -24 11 -4 15 -14 11 -32 -4 -20 -1 -24 12 -18
20 8 32 8 53 -1 13 -5 15 -2 11 15 -4 13 1 27 13 39 18 17 21 16 75 -27 l56
-45 -19 -65 c-10 -36 -16 -67 -14 -70 3 -2 28 12 58 32 29 20 56 36 60 36 4 0
32 -16 62 -35 30 -19 57 -35 60 -35 2 0 -4 30 -15 68 l-19 67 22 18 c13 11 39
32 58 48 19 16 65 52 101 80 64 50 66 54 58 82 -5 17 -12 34 -17 39 -4 4 -58
-33 -119 -82 -113 -90 -127 -98 -138 -80 -3 5 0 7 9 4 14 -5 226 155 235 178
3 8 -47 88 -55 88 -15 0 -214 -175 -215 -188 -1 -10 -4 -7 -8 7 -8 28 -31 40
-31 16 0 -11 -22 2 -72 42 -40 32 -92 73 -115 91 l-42 33 -30 -41z m0 -77 c13
-16 12 -17 -3 -4 -10 7 -18 15 -18 17 0 8 8 3 21 -13z m44 -33 c10 -11 16 -20
13 -20 -3 0 -13 9 -23 20 -10 11 -16 20 -13 20 3 0 13 -9 23 -20z m50 -40 c10
-11 16 -20 13 -20 -3 0 -13 9 -23 20 -10 11 -16 20 -13 20 3 0 13 -9 23 -20z
m50 -40 c10 -11 16 -20 13 -20 -3 0 -13 9 -23 20 -10 11 -16 20 -13 20 3 0 13
-9 23 -20z m65 -43 c10 -4 8 -6 -6 -6 -12 -1 -25 6 -28 15 -5 13 -3 14 6 7 7
-6 20 -13 28 -16z"/>
<path d="M2995 9090 c-4 -13 -15 -20 -31 -20 -27 0 -32 -15 -8 -24 11 -4 15
-14 11 -32 -4 -20 -1 -24 12 -18 9 3 21 6 26 6 6 0 17 -3 26 -6 13 -6 16 -2
12 18 -4 18 0 28 11 32 24 9 19 24 -9 24 -15 0 -25 6 -25 14 0 24 -18 28 -25
6z"/>
<path d="M2555 8990 c-4 -13 -15 -20 -32 -20 -25 0 -26 -1 -8 -20 10 -11 15
-28 12 -40 -6 -23 -3 -24 25 -9 14 8 23 8 31 0 18 -18 28 -12 21 14 -4 18 -1
27 10 31 24 9 19 24 -9 24 -15 0 -25 6 -25 14 0 24 -18 28 -25 6z"/>
<path d="M2894 8993 c-4 -16 -14 -23 -30 -23 -27 0 -32 -15 -8 -24 11 -4 14
-13 10 -31 -7 -26 3 -32 21 -14 8 8 17 8 31 0 29 -15 35 -14 23 7 -7 13 -4 23
11 40 l21 22 -25 0 c-16 0 -29 8 -36 23 l-11 22 -7 -22z"/>
<path d="M1754 8917 c-48 -18 -97 -55 -126 -96 -28 -39 -58 -128 -58 -172 0
-14 -7 -33 -16 -40 -13 -11 -15 -31 -12 -121 l3 -107 38 -39 c32 -33 37 -44
37 -85 0 -43 6 -54 67 -132 l67 -85 102 0 102 0 65 83 c55 71 65 90 71 137 6
43 14 62 41 90 33 35 34 36 36 137 2 81 0 106 -13 120 -8 10 -18 42 -21 72
-13 109 -83 204 -175 237 -46 16 -166 17 -208 1z m31 -209 l16 -58 54 0 54 0
25 84 c14 46 26 89 26 95 0 16 69 -21 98 -52 21 -22 22 -29 13 -63 -6 -22 -11
-76 -11 -120 l0 -82 -52 -23 c-76 -34 -219 -34 -300 -1 l-57 24 1 82 c0 46 -5
100 -12 120 -11 35 -10 40 11 63 13 14 40 33 59 43 l35 18 12 -36 c7 -21 19
-63 28 -94z m-140 -278 c8 -6 41 -14 74 -17 48 -5 62 -3 66 9 8 19 136 20 143
0 5 -15 63 -16 115 -1 42 11 39 1 38 169 0 64 2 89 9 75 5 -11 9 -38 9 -61 1
-22 8 -62 17 -88 16 -46 16 -47 -11 -86 -15 -21 -51 -61 -79 -88 -29 -28 -59
-66 -67 -87 l-14 -37 -90 0 -89 0 -14 40 c-7 23 -28 51 -50 69 -21 17 -57 56
-81 87 l-44 56 16 43 c9 23 19 74 24 112 8 68 8 66 11 -57 2 -95 6 -129 17
-138z m86 15 l44 -15 -54 6 c-59 6 -71 10 -71 25 0 6 8 8 19 4 10 -3 38 -12
62 -20z m327 13 c-5 -15 -42 -26 -88 -26 -33 0 -31 1 20 18 68 22 73 23 68 8z
m-323 -217 c15 -42 13 -81 -4 -81 -4 0 -14 19 -21 43 -7 23 -23 63 -36 89 -13
26 -24 50 -24 52 0 3 16 -9 35 -27 19 -18 41 -52 50 -76z m307 62 c-11 -21
-27 -62 -36 -90 -18 -54 -32 -67 -38 -35 -7 30 24 104 56 133 17 16 32 29 34
29 1 0 -6 -17 -16 -37z m-104 -150 l-3 -38 -74 -3 c-81 -3 -91 2 -91 51 l0 27
86 0 85 0 -3 -37z"/>
<path d="M644 7682 l7 -79 -72 9 c-40 5 -76 7 -80 6 -9 -3 308 -448 319 -448
10 1 324 442 318 447 -2 2 -38 0 -80 -4 l-75 -9 5 60 c3 34 7 69 9 79 6 31
-16 18 -97 -58 l-81 -74 -82 74 c-45 41 -86 75 -90 75 -4 0 -5 -35 -1 -78z
m221 -94 c26 29 49 51 51 49 10 -10 -45 -205 -82 -292 l-17 -40 -23 53 c-20
43 -84 261 -84 284 0 3 24 -19 54 -50 l54 -56 47 52z m-158 -145 c23 -58 41
-104 39 -102 -9 10 -156 209 -156 212 0 1 17 1 38 -1 l37 -4 42 -105z m325 95
c-5 -7 -42 -58 -82 -113 -40 -55 -70 -93 -67 -85 3 8 20 49 37 90 17 41 35 85
40 98 8 17 18 22 46 22 28 0 34 -3 26 -12z"/>
<path d="M1620 7259 c-117 -23 -238 -125 -280 -236 -61 -161 3 -359 146 -450
198 -126 452 -50 552 165 23 50 27 69 27 152 -1 84 -4 102 -30 155 -54 112
-158 192 -280 214 -66 12 -72 12 -135 0z m185 -123 c57 -26 117 -87 141 -143
9 -21 16 -67 17 -103 2 -158 -113 -274 -271 -273 -79 1 -127 19 -183 70 -64
58 -83 104 -84 198 0 95 26 157 89 211 77 66 199 83 291 40z"/>
<path d="M1657 7058 l-27 -83 -91 3 c-59 2 -89 0 -85 -7 4 -5 36 -31 71 -57
36 -26 65 -53 65 -59 0 -6 -11 -44 -24 -85 -14 -41 -23 -76 -21 -79 3 -2 37
20 76 48 l71 52 70 -51 c39 -28 72 -49 75 -47 2 3 -7 42 -21 86 l-25 82 70 52
c38 28 69 55 69 59 0 5 -40 8 -89 8 l-89 0 -27 80 c-15 44 -30 80 -34 80 -4 0
-19 -37 -34 -82z"/>
<path d="M495 6939 c-22 -5 -43 -13 -48 -18 -9 -9 9 -200 23 -236 6 -17 20
-26 45 -31 20 -3 39 -13 42 -20 7 -18 32 -18 39 0 3 8 23 17 44 21 21 4 41 13
44 20 10 26 29 222 23 237 -12 31 -129 46 -212 27z"/>
<path d="M432 6652 c-26 -8 -27 -10 -19 -51 14 -67 136 -58 137 11 0 10 -16
22 -47 32 -26 9 -47 16 -47 15 -1 -1 -11 -4 -24 -7z"/>
<path d="M653 6646 c-50 -17 -59 -31 -40 -59 20 -31 60 -41 94 -25 28 14 51
64 37 78 -17 15 -59 18 -91 6z"/>
<path d="M3061 8278 c-540 -1136 -614 -1298 -600 -1314 21 -26 172 -144 184
-144 5 1 56 98 111 218 l101 217 177 3 176 2 1 -22 c0 -13 0 -42 -1 -65 -1
-24 2 -43 7 -43 5 0 66 57 136 128 l127 127 -128 128 c-70 70 -130 127 -134
127 -4 0 -6 -25 -5 -55 2 -31 0 -60 -3 -66 -4 -6 -52 -9 -118 -7 l-112 3 116
245 c64 135 117 246 118 247 0 1 -1 -71 -2 -159 l-4 -161 128 -128 c71 -71
131 -129 134 -129 3 0 4 203 2 451 l-2 450 -45 20 c-53 23 -169 54 -243 63
l-53 7 -68 -143z"/>
<path d="M3337 7212 c-120 -120 -128 -131 -125 -163 l3 -34 127 -3 127 -3 3
166 c2 91 1 165 -2 165 -3 0 -63 -58 -133 -128z"/>
<path d="M257 6888 c-143 -176 -137 -404 14 -563 86 -91 185 -135 305 -135
321 0 527 352 368 628 -29 49 -82 112 -95 112 -21 0 -8 -80 21 -127 113 -183
48 -414 -143 -508 -47 -22 -72 -28 -135 -29 l-77 -1 -3 29 c-4 35 10 46 60 46
52 0 68 -9 68 -36 0 -13 4 -24 8 -24 17 0 32 26 32 55 0 40 -29 55 -108 55
-91 0 -124 -37 -86 -95 20 -30 10 -31 -50 -5 -61 26 -141 102 -174 165 -24 45
-27 61 -27 155 0 95 3 110 27 157 15 28 32 54 38 58 13 8 13 105 1 105 -5 0
-25 -19 -44 -42z"/>
<path d="M8160 2093 c-100 -13 -307 -80 -328 -106 -12 -15 0 -141 27 -270 14
-68 24 -92 41 -104 83 -59 85 -61 105 -209 16 -125 21 -140 48 -171 16 -18 28
-36 25 -38 -10 -10 -68 75 -68 99 0 17 -17 45 -50 81 -84 93 -118 184 -124
331 -5 129 -18 244 -27 244 -21 0 -69 -183 -69 -264 0 -67 28 -177 61 -244 50
-102 207 -252 268 -257 9 0 22 -4 29 -9 15 -9 16 -18 -7 211 l-20 192 -38 33
c-84 73 -83 71 -108 235 l-6 41 58 22 c32 12 88 25 125 27 57 5 70 3 94 -16
39 -31 172 -31 216 0 25 18 39 21 96 16 37 -2 93 -15 125 -27 54 -20 58 -24
53 -48 -3 -15 -10 -60 -17 -101 -12 -76 -14 -80 -88 -143 l-43 -37 -19 -193
c-11 -106 -18 -198 -17 -204 2 -7 21 9 43 34 39 45 40 49 60 186 l21 140 51
41 c46 36 52 46 67 105 24 102 36 179 36 242 l0 59 -57 25 c-60 27 -217 71
-268 76 -17 1 -41 -5 -55 -15 -35 -25 -166 -24 -194 1 -12 10 -32 17 -46 15z"/>
<path d="M6247 1951 c-32 -58 -34 -95 -7 -138 l20 -33 -34 0 c-50 0 -69 -9
-55 -26 9 -11 3 -17 -25 -31 -41 -19 -45 -29 -16 -38 34 -11 22 -22 -37 -37
l-58 -14 39 -20 38 -21 -53 -23 -54 -23 55 -25 c51 -23 53 -25 33 -35 -33 -15
-28 -24 18 -32 37 -6 39 -8 25 -24 -9 -10 -13 -21 -9 -24 3 -4 -2 -7 -12 -7
-17 0 -17 1 -1 19 19 21 21 20 -46 35 -38 9 -36 -7 8 -80 41 -69 98 -130 172
-185 42 -32 52 -45 52 -69 0 -36 -23 -60 -60 -60 -16 0 -31 -6 -34 -12 -5 -10
-7 -10 -12 0 -14 29 -137 0 -219 -52 -68 -45 -121 -106 -159 -185 -29 -61 -31
-74 -31 -174 0 -94 2 -110 19 -122 10 -8 15 -18 11 -24 -11 -19 47 -111 100
-159 27 -25 79 -59 115 -76 60 -28 74 -31 170 -31 97 0 110 2 172 32 37 17 87
50 112 73 57 52 110 135 102 156 -4 10 1 22 11 29 15 12 18 30 18 127 0 107
-2 116 -33 180 -23 48 -52 84 -102 131 -52 48 -70 72 -70 90 0 43 30 55 123
50 138 -8 269 34 385 126 54 43 90 51 116 25 20 -19 20 -23 0 -91 -25 -86 -16
-221 20 -295 42 -88 115 -161 204 -205 73 -37 80 -38 182 -38 98 0 110 2 173
32 89 42 168 121 210 210 30 63 32 76 32 173 0 97 -2 110 -32 172 -44 94 -109
160 -202 206 -67 33 -85 37 -166 40 -106 4 -178 -16 -261 -73 -57 -40 -83 -43
-109 -15 -16 17 -17 41 -4 75 7 17 -45 22 -70 6 -12 -8 -12 -12 -2 -25 8 -9
10 -16 5 -16 -5 0 -17 11 -26 24 l-17 24 46 7 47 7 -24 18 -24 18 49 24 48 25
-48 23 -47 23 33 21 33 20 -57 14 c-59 15 -71 26 -37 37 29 9 24 23 -15 42
-21 10 -31 20 -24 24 21 13 -2 29 -42 29 l-40 0 16 30 c22 43 19 97 -11 147
-24 42 -27 43 -47 30 -96 -62 -114 -68 -158 -58 -59 14 -160 14 -214 0 -43
-11 -46 -10 -109 30 -36 23 -67 41 -69 41 -2 0 -16 -22 -30 -49z m133 -52 c0
-11 -47 -38 -54 -32 -13 13 -6 35 9 29 27 -10 15 13 -15 29 -38 20 -37 20 -50
-20 -9 -29 -9 -41 4 -67 9 -17 14 -33 11 -36 -3 -3 -12 12 -21 33 -14 35 -14
42 1 82 l17 43 49 -27 c27 -16 49 -31 49 -34z m475 31 c8 -16 15 -40 15 -54 0
-30 -20 -76 -32 -76 -5 0 -2 10 6 22 20 27 21 78 3 102 -13 18 -15 18 -40 1
-24 -15 -41 -45 -18 -31 5 3 11 0 14 -8 9 -22 -16 -26 -41 -6 l-22 18 48 31
c26 17 48 31 49 31 1 0 9 -13 18 -30z m-499 -205 c27 -14 66 -41 88 -60 21
-20 40 -35 42 -33 1 2 10 17 18 33 l16 30 0 -34 c0 -22 -8 -43 -21 -58 l-22
-22 -31 26 c-43 36 -125 73 -163 73 -35 0 -44 -14 -16 -24 41 -16 -63 -52
-113 -40 -25 6 -24 8 20 27 52 22 58 34 21 43 -14 3 -25 10 -25 14 0 9 36 20
68 20 24 0 30 15 10 23 -7 3 3 6 23 6 19 1 57 -10 85 -24z m522 18 c-31 -8
-20 -20 23 -26 41 -5 62 -17 44 -24 -49 -18 -43 -36 20 -57 l37 -13 -32 -7
c-32 -6 -92 5 -118 23 -11 7 -11 9 2 14 9 4 16 12 16 18 0 8 -14 10 -45 6 -52
-8 -94 -27 -146 -68 l-36 -28 -22 22 c-14 16 -21 36 -21 63 l1 39 15 -35 c8
-19 17 -36 19 -38 2 -3 25 14 50 36 61 54 121 82 170 81 22 -1 32 -3 23 -6z
m-453 -156 c26 -20 10 -37 -34 -37 -44 0 -75 25 -50 41 21 13 63 11 84 -4z
m373 -1 c3 -3 -1 -13 -8 -21 -15 -18 -101 -17 -107 1 -8 25 92 42 115 20z
m-278 -81 l24 -25 -22 -16 c-30 -21 -28 -38 8 -51 58 -22 123 28 73 55 -16 9
-16 12 0 36 21 31 22 31 71 3 67 -38 70 -114 5 -141 -27 -11 -38 -11 -70 2
-32 12 -46 13 -78 4 -84 -26 -131 -5 -131 56 0 45 6 54 50 81 44 26 42 26 70
-4z m931 -155 c7 -39 16 -73 21 -76 4 -3 8 -20 8 -37 0 -25 3 -29 11 -17 7 11
8 1 3 -35 -3 -28 -15 -59 -25 -70 -19 -19 -19 -18 -19 48 0 82 -20 91 -21 10
-1 -48 -3 -53 -9 -28 -6 24 -8 26 -9 8 -3 -58 -43 -6 -62 80 -21 98 -39 79
-20 -21 8 -42 8 -42 -18 -40 -17 2 -33 14 -44 33 l-18 30 5 -32 c3 -18 2 -35
-3 -37 -13 -8 -53 92 -48 117 l4 22 8 -22 c11 -33 26 -28 19 6 -10 50 13 43
36 -12 l22 -52 9 32 c6 19 6 48 0 72 -10 45 -5 57 17 38 13 -10 14 -8 8 11 -5
15 -3 22 6 22 7 0 22 3 34 6 19 5 22 -1 34 -58 17 -83 33 -109 26 -43 -3 28
-8 65 -12 83 -5 25 -3 32 9 32 11 0 19 -19 28 -70z m-1105 9 c51 -17 116 -46
144 -65 39 -26 56 -32 65 -24 9 8 14 7 18 -2 3 -10 12 -8 33 8 76 55 277 125
353 123 27 -1 31 -3 14 -7 -12 -4 -40 -28 -62 -53 -72 -82 -180 -137 -298
-153 -146 -19 -326 57 -419 175 -11 15 -29 29 -40 33 -10 3 8 3 40 0 32 -2
101 -18 152 -35z m1175 -58 c-6 -11 -11 -30 -11 -42 0 -12 -3 -20 -6 -16 -3 3
0 38 8 79 11 62 13 67 16 36 2 -20 -2 -46 -7 -57z m-25 63 c-3 -9 -6 -25 -7
-37 -1 -20 -2 -20 -9 3 -13 39 -11 50 6 50 11 0 14 -5 10 -16z m105 1 c17 -10
27 -20 23 -27 -5 -7 -2 -9 8 -6 13 5 14 -1 6 -45 -4 -29 -11 -66 -13 -83 -5
-26 -11 -32 -38 -37 -17 -3 -41 -9 -51 -13 -18 -7 -19 -3 -13 71 3 43 10 81
15 84 5 3 13 21 17 39 8 37 7 37 46 17z m-996 -28 c14 -11 15 -16 5 -22 -22
-14 -74 -13 -94 1 -19 13 -19 14 5 23 34 14 62 13 84 -2z m1067 -87 c-6 -41
-12 -38 -12 6 0 19 4 33 8 30 5 -3 7 -19 4 -36z m-453 -130 c0 -31 -3 -27 -25
35 -13 38 -22 77 -18 85 8 22 44 -77 43 -120z m566 -90 c-1 -70 -5 -95 -27
-141 -30 -65 -81 -126 -130 -153 l-33 -19 27 29 c20 22 28 44 33 89 4 33 14
71 22 84 11 16 14 38 10 70 -4 33 2 73 21 141 l26 94 25 -54 c22 -46 26 -69
26 -140z m-584 -40 c6 -30 17 -63 25 -74 8 -12 14 -45 14 -78 0 -50 4 -62 31
-93 36 -41 32 -44 -19 -11 -51 32 -109 99 -135 154 -29 64 -30 205 -3 277 l19
49 29 -84 c16 -47 34 -110 39 -140z m456 188 c-3 -7 -5 -2 -5 12 0 14 2 19 5
13 2 -7 2 -19 0 -25z m30 10 c-3 -8 -6 -5 -6 6 -1 11 2 17 5 13 3 -3 4 -12 1
-19z m-87 -71 c0 -30 -3 -33 -47 -44 -27 -6 -56 -14 -65 -18 -23 -9 -25 27 -2
49 20 21 32 20 37 -1 3 -14 6 -13 15 9 6 15 21 28 34 31 13 2 24 5 26 6 1 0 2
-14 2 -32z m40 -14 c0 -13 -4 -23 -10 -23 -5 0 -10 17 -10 38 0 27 3 33 10 22
5 -8 10 -25 10 -37z m-276 23 c34 -14 66 -50 66 -73 0 -26 -20 -12 -21 15 0
25 -1 26 -9 5 -8 -20 -12 -21 -39 -10 -22 8 -31 18 -31 34 0 13 -4 23 -10 23
-5 0 -10 -8 -10 -19 0 -13 -9 -20 -30 -23 -28 -4 -30 -3 -30 29 0 32 1 33 40
33 22 0 56 -6 74 -14z m-90 -124 c14 -21 26 -48 26 -60 0 -12 5 -22 10 -22 6
0 10 13 10 28 0 26 3 28 29 24 29 -4 29 -4 13 -32 -9 -16 -20 -26 -24 -24 -5
3 -8 -16 -8 -43 l-1 -48 -44 70 c-36 55 -44 78 -42 107 1 21 3 38 3 38 1 0 13
-17 28 -38z m205 -114 l1 -88 -35 0 -35 0 -1 78 c-1 86 -16 66 -18 -25 -1 -46
-3 -51 -21 -46 -11 3 -20 13 -20 23 0 35 28 109 56 146 l29 38 6 -35 c6 -31 7
-30 8 16 l3 50 13 -35 c7 -19 14 -74 14 -122z m-1216 98 c102 -16 215 -104
260 -204 16 -36 21 -66 21 -132 0 -47 -1 -98 -4 -113 l-4 -28 -90 7 c-148 11
-144 7 -90 87 25 38 44 70 42 73 -2 2 -35 -19 -73 -46 -38 -28 -72 -50 -75
-50 -4 0 -12 73 -19 163 -19 247 -21 283 -15 266 3 -10 21 -19 47 -23z m1112
24 c4 -6 -7 -10 -24 -10 -17 0 -31 5 -31 10 0 6 11 10 24 10 14 0 28 -4 31
-10z m205 0 c0 -5 -13 -10 -30 -10 -16 0 -30 5 -30 10 0 6 14 10 30 10 17 0
30 -4 30 -10z m50 -82 c-11 -18 -20 -27 -20 -20 0 6 -4 12 -10 12 -5 0 -10
-13 -10 -29 0 -61 -13 -67 -25 -10 -7 29 -15 61 -19 70 -5 13 1 19 25 28 18 6
34 11 35 11 2 0 4 -15 4 -32 0 -46 19 -16 21 32 l1 35 9 -32 c7 -26 5 -39 -11
-65z m-1456 -139 c-9 -112 -18 -206 -20 -207 -3 -5 -92 54 -121 81 -40 36 -35
12 12 -59 53 -81 57 -76 -86 -88 l-87 -7 -12 52 c-35 147 45 324 178 393 29
15 143 46 150 41 1 -1 -5 -94 -14 -206z m1360 108 c18 -55 20 -83 6 -92 -6 -4
-10 11 -10 36 0 50 -16 42 -23 -11 -2 -19 -5 3 -5 50 -2 91 6 95 32 17z m-230
-84 c4 -13 10 -22 14 -22 4 1 9 0 12 -1 3 -1 18 -4 35 -6 39 -7 45 -14 13 -14
-21 0 -25 -4 -21 -20 5 -20 23 -28 23 -11 0 5 7 12 16 15 8 3 12 2 9 -4 -4 -6
14 -10 45 -10 36 0 49 3 44 12 -5 8 2 9 26 5 28 -6 31 -5 20 8 -13 16 -6 19
30 16 9 -1 22 13 29 31 13 31 14 32 18 9 3 -17 -5 -33 -28 -57 -18 -19 -39
-34 -46 -34 -7 0 -13 -8 -13 -19 0 -24 -19 -39 -58 -47 -30 -6 -32 -4 -32 20
0 32 -19 25 -21 -7 -1 -17 -2 -18 -6 -4 -6 22 -23 22 -23 1 0 -32 -30 7 -42
55 -10 40 -13 43 -18 21 l-6 -24 -23 32 c-13 18 -25 52 -28 75 -5 39 -4 40 10
22 8 -11 17 -30 21 -42z m-1441 -330 c-7 -2 -19 -2 -25 0 -7 3 -2 5 12 5 14 0
19 -2 13 -5z m677 -3 c-19 -5 -36 -14 -39 -21 -8 -26 -87 -101 -126 -121 -22
-12 -65 -29 -95 -38 -42 -12 -56 -21 -61 -40 -4 -14 -7 -20 -8 -14 -1 13 30
157 35 163 2 2 19 -7 38 -19 40 -24 44 -19 18 25 l-19 30 121 21 c123 22 204
30 136 14z m-503 -21 l83 -12 -21 -34 c-12 -19 -19 -36 -17 -38 2 -3 20 6 40
20 l36 24 11 -60 c7 -34 10 -63 7 -66 -8 -8 -94 15 -138 38 -49 25 -108 78
-132 119 l-19 33 34 -6 c19 -3 71 -12 116 -18z m150 -201 c-3 -8 -6 -5 -6 6
-1 11 2 17 5 13 3 -3 4 -12 1 -19z"/>
<path d="M8786 1883 c-4 -38 -11 -122 -15 -188 -12 -162 -47 -248 -135 -334
-24 -23 -36 -44 -36 -62 0 -15 -15 -46 -35 -73 -20 -25 -32 -46 -27 -46 22 0
132 82 178 133 150 163 190 376 113 584 -11 29 -24 53 -28 53 -5 0 -11 -30
-15 -67z"/>
<path d="M8034 1901 c-46 -28 -64 -59 -64 -110 0 -106 118 -184 208 -137 53
28 77 64 77 116 0 112 -128 188 -221 131z m149 -61 c35 -39 36 -88 3 -127 -48
-56 -151 -25 -171 51 -25 99 97 154 168 76z"/>
<path d="M8429 1898 c-42 -23 -79 -82 -79 -123 0 -67 69 -135 137 -135 77 0
153 75 153 150 -1 104 -116 164 -211 108z m128 -38 c40 -24 52 -73 29 -118
-20 -39 -48 -54 -99 -56 -95 -2 -121 135 -33 178 41 21 65 20 103 -4z"/>
<path d="M8188 1623 l-93 -48 3 -40 c2 -22 5 -41 7 -43 1 -2 32 12 69 30 66
32 66 32 97 14 30 -18 32 -18 65 0 l34 18 65 -32 c36 -18 68 -32 70 -32 3 0 5
20 5 44 l0 45 -91 45 c-50 25 -102 46 -115 46 -12 0 -65 -21 -116 -47z"/>
<path d="M6000 1601 c0 -17 3 -32 8 -35 8 -5 72 20 72 28 0 7 -56 36 -70 36
-5 0 -10 -13 -10 -29z"/>
<path d="M7078 1614 c-16 -8 -28 -17 -28 -19 0 -5 56 -35 65 -35 3 0 5 16 5
35 0 39 -3 41 -42 19z"/>
<path d="M6020 1516 c0 -42 26 -59 49 -32 10 12 7 18 -18 31 -26 13 -31 13
-31 1z"/>
<path d="M7066 1513 c-28 -15 -29 -16 -11 -29 27 -20 42 -17 49 9 11 43 8 45
-38 20z"/>
<path d="M8173 1488 c-63 -32 -63 -32 -63 -75 0 -26 5 -43 12 -43 6 0 35 13
64 30 52 29 54 29 87 14 31 -15 36 -15 65 0 31 16 33 15 85 -14 30 -16 59 -30
65 -30 7 0 12 17 12 43 l0 43 -67 33 c-66 32 -67 32 -99 15 -30 -16 -34 -16
-58 -1 -32 22 -30 22 -103 -15z"/>
<path d="M8173 1362 c-47 -23 -53 -30 -53 -57 0 -18 3 -34 6 -38 3 -3 31 6 61
21 53 26 55 26 84 10 28 -16 32 -16 65 -1 34 16 36 16 88 -9 30 -15 57 -24 60
-21 3 4 6 21 6 38 0 28 -5 34 -60 60 -58 28 -61 28 -93 13 -28 -14 -37 -14
-58 -2 -33 18 -46 17 -106 -14z"/>
<path d="M8188 1257 c-26 -12 -48 -25 -48 -29 0 -6 155 -98 165 -98 10 0 165
92 165 98 0 4 -25 18 -55 30 -52 23 -55 23 -83 7 -27 -17 -31 -17 -53 -1 -29
20 -33 19 -91 -7z"/>
</g>
</svg>
